<?xml version="1.0" encoding="UTF-8" standalone="no"?>
<!-- Created with Inkscape (http://www.inkscape.org/) -->

<svg
   xmlns:svg="http://www.w3.org/2000/svg"
   xmlns="http://www.w3.org/2000/svg"
   version="1.1"
   width="176.35901"
   height="176.3524"
   id="svg2932">
  <defs
     id="defs2934" />
  <g
     transform="translate(-457.53478,-687.04313)"
     id="layer1">
    <g
       transform="matrix(1.6926835,0,0,-1.6926835,392.85904,890.66618)"
       id="g3236"
       style="fill:#bfdfde;fill-opacity:1">
      <path
         d="m 39.668,68.2051 c 0,27.9199 22.7129,50.6359 50.6359,50.6359 27.9201,0 50.6361,-22.716 50.6361,-50.6359 0,-27.9231 -22.716,-50.6391 -50.6361,-50.6391 -27.923,0 -50.6359,22.716 -50.6359,50.6391 l 0,0 z m -1.459,0 c 0,-28.725 23.3687,-52.0942 52.0949,-52.0942 28.7261,0 52.0941,23.3692 52.0941,52.0942 0,28.723 -23.368,52.0909 -52.0941,52.0909 -28.7262,0 -52.0949,-23.3679 -52.0949,-52.0909 l 0,0"
         id="path3851"
         style="fill:#bfdfde;fill-opacity:1;fill-rule:evenodd;stroke:none" />
      <path
         d="m 124.531,59.732 c -1.42,-1.3199 -3.428,-1.3422 -5.055,-2.4109 -0.747,-0.7481 -0.558,-1.5949 -0.253,-2.5352 0.602,-1.1898 0.374,-1.0668 -0.467,-1.348 -1.963,-0.6539 -1.941,-2.802 -4.304,-2.4418 -0.133,-0.0402 -0.686,0.2367 -0.359,-0.1594 0.254,-0.3027 0.359,-0.1199 0.86,-0.1797 0.841,-0.041 1.155,0.3059 1.745,0.7071 0.843,0.7089 0.743,0.9757 1.779,1.4738 0.248,0.0582 0.859,0.2398 1.2,0.1199 0.23,-0.2117 0.237,-0.2168 0.275,-0.4066 -0.135,-0.575 -0.975,-1.0543 -1.296,-1.2543 0.442,-0.3231 1.268,-0.8699 1.134,-1.3278 -0.188,-0.3011 -0.18,-0.3523 -0.513,-0.514 -0.467,-0.2262 -1.402,-0.1922 -2.283,0.4597 -0.134,-0.0398 -0.28,0.2614 -0.657,-0.0976 0.859,-0.8824 2.06,-0.6813 2.24,-0.8621 0.179,-0.1801 -0.642,-1.2461 -0.679,-1.475 -0.575,-1.5313 0.131,-2.941 -0.177,-4.5313 -0.19,-1.2437 -0.561,-1.8359 -1.65,-2.6187 -1.998,-1.384 -3.399,-1.784 -5.641,-2.143 -5.878,-0.4031 -9.587,1.6149 -13.8202,4.7758 -4.2328,3.1609 -5.852,4.843 -7.1731,6.6223 -0.0187,0.7277 0.516,1.2808 0.0594,2.0687 -0.3832,-0.134 -0.3453,-0.6328 -0.5762,-0.9199 -0.3261,-0.4621 -1.1101,-0.8039 -1.6672,-0.7473 -1.741,0.5934 -1.8379,2.641 -2.9257,3.8094 -2.3372,2.2988 -2.9891,5.6109 -1.743,8.3859 0.439,0.8618 1.223,1.6848 2.1058,1.9899 1.0891,0.1742 2.3743,0.1742 3.0832,-0.8797 0.8399,-0.8031 1.359,-2.1051 1.5668,-3.2531 0.3461,-0.5571 -0.075,-1.1879 0.4981,-1.6493 0.9949,-0.0929 1.8559,-0.3418 2.8141,0.268 0.7089,-0.093 0.8058,-0.8797 1.3418,-1.223 L 94.952,56.859 c 1.0128,-0.418 2.3168,-0.418 3.1781,0.3281 1.609,1.6449 1.2566,3.3379 1.8117,5.1547 1.5332,1.359 2.5522,3.3043 2.5332,5.202 -0.096,1.1671 -0.516,2.3734 -1.206,3.5402 0.114,0.6898 0.497,1.2058 0.727,1.8199 0.193,0.1141 0.442,0.1141 0.651,0.152 1.704,0.364 3.255,1.9152 3.925,3.5421 l 0.152,0.1532 c 1.953,0.1328 4.386,0.8238 5.515,2.8726 0.23,0.8813 1.225,0.2313 1.838,0.4391 1.033,0.059 2.068,0.632 2.852,1.3031 0.231,0.077 0.401,-0.1738 0.538,-0.2859 0.457,-1.534 1.301,-3.0082 1.779,-4.559 0.593,-1.1672 0.806,-2.277 0.593,-3.4652 0.25,-1.8168 1.283,-3.5211 2.011,-5.3598 0.727,-1.934 1.856,-3.8871 2.681,-5.8781 0.152,-0.8032 0.496,-1.4371 0,-2.086 l 0,0 z m 0.398,3.341 c -1.378,3.1782 -2.927,5.9149 -4.06,9.1129 -0.802,1.1481 -0.342,2.3731 -0.438,3.5989 -0.517,1.9152 -1.321,3.3902 -2.087,5.2472 -0.211,0.5352 0.383,0.6899 0.595,1.07 0.345,0.939 0.096,1.9929 -0.328,2.8921 -0.17,0.5168 0.442,0.8809 0.328,1.4157 -0.023,0.8242 -0.747,1.38 -1.322,1.8191 -0.863,1.2441 -1.263,1.8973 -2.336,3.0262 l 0,0.2121 c 0.535,0.4758 0.977,1.3 0.958,2.009 -0.212,0.8027 -0.383,1.5488 -1.151,2.1058 -1.224,0.6891 -2.467,-0.3832 -3.443,-0.939 -0.271,-0.1899 -0.405,-0.3828 -0.787,-0.3461 -0.248,0.089 -0.505,0.1812 -0.765,0.2742 -0.25,-0.2852 -0.561,-0.5871 -0.941,-0.8883 L 110.341,93.2 c 0.043,-0.032 0.06,-0.0559 0.06,-0.0961 0,-0.0211 -0.008,-0.059 -0.014,-0.091 -0.083,-0.0719 -2.754,-2.4129 -2.754,-2.4129 -0.007,-0.0059 -4.812,-4.7551 -4.812,-4.7551 0,-0.0031 -1.379,-1.3988 -1.379,-1.3988 -0.007,-0.0082 -4.2779,-4.9289 -4.2779,-4.9289 -2.234,-2.5902 -5.5332,-6.841 -7.5192,-9.9531 -1.032,-1.4243 -2.0629,-3.0051 -3.023,-4.5012 -0.1039,-0.166 -0.3,-0.152 -0.6102,-0.1141 -0.2109,0.0231 -0.4277,0.0453 -0.6226,-0.0207 0.0047,0 0.0078,0 0.0078,0 l -0.043,-0.0121 c 0.0102,0.0028 0.0238,0.0059 0.0352,0.0121 -1.0871,-0.1211 -1.8762,-0.482 -2.7211,-1.248 -1.0969,-1.2922 -1.6492,-2.8582 -1.6492,-4.5461 0,-1.1602 0.2652,-2.384 0.798,-3.6129 -0.225,-0.6582 -0.741,-1.2383 -1.2039,-1.7512 L 80.3559,53.4801 80.027,53.157 c -0.2141,-0.2043 -0.4582,-0.4332 -0.6352,-0.6582 l -0.016,-0.0207 -0.011,-0.0281 c -0.021,-0.0711 -0.0308,-0.2082 0.1801,-0.3102 l 0.0512,-0.0269 0.0559,0.0141 c 1.0121,0.2398 1.6488,1.0007 2.266,1.7359 0,0 0.3879,0.4469 0.4449,0.5141 0.0898,0.016 0.166,-0.0352 0.3,-0.1469 0.0691,-0.059 0.1488,-0.116 0.2398,-0.159 0,-0.0199 0,-0.05 0,-0.05 0,0 -0.0129,-0.3262 -0.016,-0.4012 -2.3949,-2.3648 -4.3449,-3.7011 -6.8949,-5.1988 l -0.4258,-0.2492 0.4918,-0.0508 c 0.9961,-0.0992 1.9402,0.4598 2.8531,1.0008 l 1.0969,0.6051 c 1.0141,0.5191 1.9531,1.3109 2.8652,2.0769 0,0 0.825,0.684 0.9129,0.7559 0.0852,-0.0129 0.1821,-0.1219 0.2571,-0.211 0,0 0.0539,-0.059 0.0879,-0.0961 0.016,-0.0289 0.7652,-1.5117 0.8109,-1.5996 -0.1719,-0.7043 -0.2457,-1.4082 -0.2457,-2.1109 0,-1.5332 0.3309,-3.0582 0.6578,-4.5524 0.3211,-1.471 0.652,-2.991 0.652,-4.4839 0,-0.0989 -0.002,-0.195 -0.0051,-0.2942 0,-0.4605 -0.5047,-1.0726 -0.925,-1.2656 -0.9578,-0.1633 -2.1141,-0.175 -3.3399,-0.1852 -1.5011,-0.0129 -3.055,-0.0269 -4.248,-0.35 C 77.102,37.3648 76.6578,37.2391 76.227,37.1191 75.8051,37.0012 75.3688,36.8789 74.9617,36.8219 L 74.9219,36.8172 74.8758,36.782 74.7289,36.6801 C 74.593,36.5949 74.4238,36.491 74.384,36.2898 74.3809,36.275 74.3789,36.2551 74.3789,36.2367 c 0,-0.1156 0.0531,-0.2406 0.1379,-0.3297 0.0832,-0.0859 0.1883,-0.125 0.2949,-0.1148 0.3613,0 0.7653,0.1457 1.1594,0.2887 0.2727,0.0992 0.559,0.2031 0.8207,0.248 2.493,0.4262 5.2281,0.341 7.0793,0.1922 0.9148,0.0148 2.4156,0.0449 2.9566,1.3418 0.1953,0.5269 0.2621,1.0172 0.2621,1.4883 0,0.5187 -0.08,1.0187 -0.1628,1.5328 l -0.1629,1.2621 c -0.1102,0.7711 -0.2731,1.5387 -0.4313,2.284 -0.2808,1.3211 -0.5699,2.6789 -0.5699,4.0558 0,0.2782 0.016,0.5579 0.0398,0.8391 0.0274,0.0359 0.0563,0.0789 0.0911,0.0828 0.0812,0.011 0.223,-0.1008 0.3351,-0.1898 0.1281,-0.1012 0.259,-0.1969 0.4039,-0.234 0.1652,-0.1262 0.3531,-0.1621 0.5242,-0.1828 0.2379,-0.0324 0.3668,-0.0621 0.4418,-0.2461 0.1071,-1.209 0.5242,-2.459 0.9282,-3.668 0.2789,-0.832 0.5668,-1.6949 0.7519,-2.534 0.3289,-1.4711 0.6609,-2.9652 0.6609,-4.4359 0,-0.875 -0.1179,-1.7453 -0.425,-2.5973 C 88.875,34.1551 87.475,34.15 86.1238,34.1438 l -0.4027,0 -3.3133,0.2011 c -2.8418,0.2063 -5.7789,0.4172 -8.7918,-0.0699 0.0207,0.0039 -0.6742,-0.073 -0.6742,-0.073 -0.373,-0.0559 -0.723,-0.1008 -1.1,-0.0122 -0.1391,0.1122 -0.252,0.3071 -0.252,0.5102 0,0.0648 0.011,0.1309 0.0379,0.1961 0.5383,1.1879 0.8082,2.2609 0.8082,3.2109 0,0.77 -0.1769,1.459 -0.53,2.0618 -0.7789,1.4941 -1.6348,2.53 -2.6911,3.2523 -1.2937,1.2937 -2.4,2.4418 -3.3828,3.559 -0.5742,0.0719 -0.9281,0.1847 -0.966,0.198 l -0.1281,0.0438 -0.575,-0.709 c 0.7469,-0.7078 1.4371,-1.4168 2.2789,-2.1828 1.2832,-0.6903 2.318,-1.934 3.2352,-2.777 1.1109,-1.3004 1.3781,-2.6793 1.148,-4.2113 -0.152,-1.8168 -1.8172,-2.6039 -2.948,-3.8098 -0.4582,-0.8632 -0.7469,-1.8949 -0.1161,-2.7011 0.4051,-1.07 2.125,-0.877 2.3371,-1.7598 0.4731,-1.9449 3.8469,-3.0691 4.5047,-3.1152 0.6563,-0.045 1.3352,-0.7688 1.3352,-0.7688 1.341,-0.9781 3.1012,-0.741 4.0269,-0.6004 0.9231,0.1395 2.577,-0.6066 3.6122,-0.4547 1.5488,0.6129 2.8148,0.3258 4.423,0.4598 5.0539,-0.0777 10.7961,0.0383 15.965,-0.6117 0.958,0.1148 2.106,-0.6321 3.008,-0.175 0.229,0.3859 0.057,0.709 0,1.0359 -2.47,3.8852 -2.84,8.2457 -1.439,12.4801 l 0.933,-0.0551 c 3.352,-0.3648 6.402,0.0692 9.807,2.0418 1.705,0.9383 2.6,3.1344 2.523,4.7223 -0.057,1.0328 -0.415,2.2527 -0.241,3.3449 0.059,0.4879 0.383,1.2281 0.801,1.4602 0.18,0.0996 0.807,0.5257 1.004,1.0699 0.324,0.8871 -0.371,1.3051 -0.571,1.425 0.541,0.2211 1.066,1.3269 0.568,2.1887 -0.321,0.3402 -0.693,1.6851 -0.732,2.1273 -0.115,0.6301 -0.133,1.2809 0.46,1.6848 1.341,0.7062 2.604,0.88 4,1.4921 0.958,0.4032 1.455,1.3969 1.418,2.2969 l -0.575,1.9531 0,0 z M 70.1969,31.5059 c -0.1719,-0.3071 -0.1481,-0.5141 -0.225,-0.884 -0.0942,-0.168 -0.5731,0.0601 -0.725,0.1531 -0.5949,0.3219 -0.5539,0.159 -0.7258,0.709 -0.0961,0.3699 -0.0852,0.8031 0.5269,1.125 0.3829,0.216 1.1489,0.475 1.3969,0 0.0781,-0.3219 -0.3051,-0.7371 -0.248,-1.1031 l 0,0 z m 3.2672,-4.1368 c -0.7852,-0.0179 -1.3364,0.4098 -1.6993,1.3348 -0.3668,1.1781 -0.4898,2.218 -0.2359,3.4301 0.0801,0.1531 0.2539,0.2519 0.366,0.2012 l 1.0949,0.3718 c 0.3672,0.15 0.6661,0.2008 1.0161,0.118 l 0.223,-0.2199 c -0.0172,-0.6391 -0.1738,-1.1102 -0.1898,-1.7 -0.0641,-1.484 -0.1903,-1.925 0.2379,-3.3379 -0.1582,-0.3711 -0.4743,-0.1922 -0.8129,-0.1981 l 0,0 z m 44.9889,55.07 c -0.106,-0.1121 -0.24,-0.2512 -0.418,-0.2032 -0.408,0.2829 -0.254,0.6442 -0.229,0.9871 0.084,0.0829 0.096,0.1309 0.229,0.1309 0.192,0.032 0.299,-0.1098 0.371,-0.2109 0.121,-0.2219 0.133,-0.4742 0.047,-0.7039 l 0,0 z M 87.3879,64.509 c 2.6801,4.8058 5.9371,8.9801 9.4211,13.2691 l 4.882,5.5489 c 3.483,3.7171 7.332,7.5269 11.602,10.473 0.534,0.3082 0.771,0.9359 1.325,0.4949 l 0.501,-0.4629 c 0.338,-0.3832 0.044,-1.4691 -0.301,-1.7742 -0.276,-0.225 -0.543,-0.4469 -0.808,-0.6656 0.832,-0.825 2.033,-2.3922 3.021,-3.4063 0.433,-0.4468 0.299,-0.9097 1.075,-1.2711 0.388,-0.1828 0.498,-0.6046 0.267,-0.9687 -0.687,-0.8801 -1.836,-0.7461 -2.737,-0.9762 -3.349,-0.7469 -6.058,-1.7051 -9.763,-3.5027 -2.967,-1.5711 -5.341,-3.3121 -7.4871,-6.0121 C 97.5648,74.241 96.6449,73.473 95.957,72.25 94.0039,69.7398 92.452,67.3859 90.9008,64.8012 90.3469,63.9879 90.1648,63.584 89.3891,62.848 c -0.3782,-0.3589 -0.7141,0.3899 -0.95,0.65 -0.0274,0.0301 -0.043,0.0618 -0.0621,0.0911 -0.0801,-0.0102 -0.1629,0.005 -0.243,0.0589 -0.209,0.268 -0.8621,0.3829 -0.7461,0.861 l 0,0 z m 29.5301,18.564 c -0.05,-0.9281 -1.29,-1.696 -2.325,-1.982 -0.441,-0.0699 -0.849,-0.0441 -1.239,-0.0441 -0.102,0.073 -0.219,0.159 -0.203,0.2582 0.067,0.441 0.136,0.6976 0.168,1.0961 l 0.258,0.1879 c 0.913,0.1839 2.033,0.382 2.95,0.6257 0.137,-0.0289 0.305,-0.016 0.391,-0.1418 l 0,0 z m -9.621,-2.416 0.166,0.211 c 0.748,0.3558 1.447,0.632 2.28,0.8718 L 110.739,82 c 0.265,0.241 0.732,0.4359 1,0.0961 0.015,-1.2922 -0.951,-2.8434 -2.379,-3.4402 -0.45,-0.195 -1.049,-0.2598 -1.583,-0.3911 -0.133,0.1153 -0.567,-0.1289 -0.697,0.1961 0.083,0.6469 0.333,1.6149 0.217,2.1961 l 0,0 z M 97.077,57.748 c -0.268,-0.155 -2.5832,0.7282 -2.3129,0.4821 -0.5493,0.5929 0.3468,0.7949 -1.693,1.5597 L 92.575,59.7379 c -0.0641,-0.0578 -0.2441,-0.1488 -0.427,0.1051 -0.0203,0.3082 0.384,0.2621 0.5118,0.6449 0.7312,1.6461 0.3293,2.9191 0.2582,4.6238 l 0.5398,1.3973 c 1.025,1.2351 1.0231,1.4121 1.718,2.0828 0.6953,0.9781 0.8402,1.052 1.7722,1.8551 0.152,0.1308 0.4329,0.2351 0.6149,0.0812 0.4391,-0.3433 0.4629,-0.5679 0.5922,-1.007 0.2179,-1.6289 -0.766,-2.7449 -1.9531,-3.625 -0.8442,-0.7281 -1.6461,-1.857 -1.4661,-2.968 l 0.0739,-0.075 c 0.384,0.325 0.8691,0.5137 1.032,0.9157 0.643,1.4339 2.3711,2.0863 3.3391,3.33 0.4211,0.7473 0.1629,2.0422 0,2.9039 -0.0051,-0.0238 1.2691,0.6024 0.9231,0.3774 0.605,-0.2492 0.53,-0.6832 0.822,-1.2363 0.568,-1.4368 0.52,-2.7348 -0.358,-3.979 l -2.4129,-3.0097 c -0.0383,-1.5332 0.384,-3.5082 -1.0781,-4.4071 l 0,0 z m 3.183,14.5661 c -0.5811,-0.2672 -1.178,-0.3262 -1.8202,-0.0293 -0.1628,0.2222 -0.6929,0.4023 -0.4839,0.7281 0.466,0.7543 1.2539,1.3781 1.7402,2.1191 l 0.2227,0.12 c 0.9832,1.1859 2.5292,2.1781 3.9952,3.0691 l 0.887,0.3859 c 0.193,0.1918 0.645,0.5942 0.82,0.1789 0.033,-1.5441 -0.62,-3.1949 -2.091,-4.2871 -0.895,-0.6609 -1.277,-0.5316 -2.074,-0.58 l -0.41,-0.7407 c -0.096,-0.3703 -0.417,-0.7422 -0.786,-0.964 l 0,0 z m -8.1241,-8.8102 -0.039,-1.0918 c -0.1,-0.9949 -0.5602,-2.1433 -1.4961,-2.6992 -0.5598,0.1332 -0.359,0.8051 -0.4981,1.2621 0.359,0.9949 1.0571,1.8199 1.6364,2.7 0.0769,0.059 0.157,0.0961 0.2367,0.059 l 0.1601,-0.2301 0,0 z m -13.33,-37.9601 c -0.3899,-0.4008 -0.609,-0.2137 -1.0051,-0.2508 -1.127,0.3058 -1.793,0.7949 -2.1117,2.0699 -0.4121,1.7801 -0.3981,3.7371 0,5.5519 l 0.182,0.143 c 0.7918,0.091 1.9906,0.2512 2.3168,0.0723 0.325,-0.1801 -0.35,-3.3801 -0.35,-3.3801 -0.0211,-0.634 0.2891,-2.2582 0.5781,-3.1 0.061,-0.125 0.709,-0.7762 0.3899,-1.1062 l 0,0 z m 8.175,1.9773 c -0.1211,-1.141 -1.5551,-2.1481 -2.2559,-2.3512 -0.7039,-0.2 -2.8039,-0.1019 -3.409,0.1063 -0.6019,0.2097 -2.0762,3.0879 -1.9051,4.5847 0,1.2332 0.3329,3.1911 0.827,3.3493 0.4949,0.1546 1.8059,0.0746 1.8059,0.0746 0.5492,0.0371 0.9632,-0.0926 1.4453,-0.1489 0.3418,-0.132 0.1007,-0.5629 0.2218,-0.807 0.1551,-0.6367 0.1899,-1.3262 0.586,-1.9629 0.5511,-1.068 1.5648,-1.7039 2.5629,-2.0789 0.225,-0.2062 0.1019,-0.484 0.1211,-0.766 l 0,0 z m -1.611,4.8328 c 0,0.2301 0.0129,0.3242 0.1871,0.3988 l 0.9469,0 c 0.8399,-0.0289 1.9219,-0.3039 2.7078,0.5082 0.4524,-0.016 0.4922,-0.5539 0.6133,-0.9687 0.107,-0.5805 0.0801,-0.9492 0.0801,-1.4711 -0.1871,-0.4133 -0.3992,-1.041 -0.8274,-1.3031 -0.6789,-0.3219 -1.3617,-0.259 -2.0136,0 -0.9871,0.5832 -1.7071,1.516 -1.6942,2.8359 l 0,0 z m 19.3841,4.5191 c -1.265,-4.3851 -1.867,-6.646 0.107,-11.1652 0.02,-0.1719 0.21,-0.7297 0,-0.8047 -2.183,0.4379 -2.763,0.6258 -4.813,0.7778 -1.8929,0.3269 -5.0402,-0.2008 -7.146,-0.1821 -1.6461,-0.0566 -3.3122,-0.1117 -5.036,-0.3226 -0.516,0.266 -0.1152,0.8418 -0.075,1.2238 0.1899,0.5949 0.209,0.9 0.268,1.5891 0.268,0.2859 0.5937,0.1347 0.918,0.2687 1.1097,0.1711 2.05,1.1473 2.316,2.1844 0.3461,1.0879 -0.0371,2.2945 -0.5352,3.3289 -0.0961,0.3059 -0.516,0.5367 -0.3449,0.8418 1.3601,2.5461 0.4019,5.1312 -0.0559,7.6199 -0.4793,1.7633 -1.2062,3.7133 -1.4961,5.5731 0.059,0.1902 -0.189,0.632 0.2309,0.6691 l 0.1551,-0.0371 c 1.4531,-1.7641 5.6179,-5.4918 7.1789,-6.7039 1.559,-1.2102 5.5892,-3.561 8.2112,-4.1918 0.249,-0.2082 0.211,-0.3832 0.117,-0.6692 l 0,0"
         id="path17"
         style="fill:#bfdfde;fill-opacity:1;fill-rule:evenodd;stroke:none" />
      <path
         d="m 115.819,74.9898 c 0.266,-0.3449 0.441,-0.65 0.229,-0.9769 -0.497,-0.0367 -0.575,0.5949 -0.995,0.8062 -0.689,0.3418 -1.303,-0.0222 -1.99,-0.1929 -1.742,-0.7461 -3.199,-2.2403 -4.883,-3.0231 -0.209,0 -0.403,0.0188 -0.536,0.1707 0.287,0.286 0.746,0.3453 1.11,0.575 1.743,1.1481 3.428,2.9461 5.61,3.2731 0.575,0.0371 1.091,-0.1719 1.455,-0.6321 l 0,0"
         id="path19"
         style="fill:#bfdfde;fill-opacity:1;fill-rule:evenodd;stroke:none" />
      <path
         d="m 115.685,72.0422 c -0.134,0.4219 -0.116,1.1098 -0.632,1.2058 -0.114,-0.2679 0,-0.5558 -0.114,-0.805 -0.154,-0.1903 -0.421,-0.42 -0.729,-0.343 -2.106,-0.1332 -3.675,-1.993 -5.475,-2.948 -0.612,-0.345 -1.302,-0.5379 -1.951,-0.7098 -0.06,-0.0961 -0.038,-0.2293 0.055,-0.2852 1.993,-0.2121 3.963,-0.4043 5.938,-0.6132 l 2.198,0.2484 c 0.06,0.2867 -0.285,0.5355 -0.229,0.8629 0.251,0.898 0.327,1.875 0.077,2.7179 0.174,0.4571 0.825,0.1149 0.862,0.6692 l 0,0 z m -1.538,-3.4012 c -0.271,-0.3992 -0.699,-0.0512 -1.076,-0.0988 -0.862,0.0988 -2.318,-0.1024 -3.268,0.0156 -0.143,0.0832 -0.251,0.2332 -0.163,0.3672 0.145,0.2348 0.541,0.2512 0.792,0.4359 1.041,0.65 2.135,1.268 3.32,1.5512 0.215,0.0328 0.395,-0.15 0.432,-0.2992 0.142,-0.5508 0.052,-1.4367 -0.037,-1.9719 l 0,0"
         id="path21"
         style="fill:#bfdfde;fill-opacity:1;fill-rule:evenodd;stroke:none" />
      <path
         d="m 116.798,62.1719 c 0.071,0.1 0.15,0.214 0.244,0.223 0.126,-0.0461 0.192,-0.1051 0.209,-0.3359 -0.016,-0.3692 -0.11,-0.7578 -0.21,-1.1692 -0.114,-0.4687 -0.23,-0.9476 -0.23,-1.416 0,-0.209 0.023,-0.4148 0.079,-0.6168 0.277,-0.3449 0.704,-0.423 1.217,-0.248 0.01,0.0039 0.872,0.5 0.872,0.5 0.75,0.4488 1.459,0.8711 2.772,1.2058 0.033,0.0082 0.039,-0.0019 0.044,-0.0078 0.021,-0.0242 0.031,-0.073 0.031,-0.1351 0,-0.1121 -0.034,-0.2649 -0.087,-0.3899 -0.05,-0.023 -1.265,-0.5652 -1.265,-0.5652 -0.955,-0.4168 -1.943,-0.85 -2.87,-1.3801 -0.274,-0.0566 -0.527,0.0922 -0.772,0.2344 l -0.059,0.0359 c -0.353,0.4821 -0.466,0.9489 -0.466,1.4149 0,0.4203 0.091,0.839 0.186,1.2691 0.087,0.4012 0.175,0.8149 0.197,1.25 0.029,0.036 0.108,0.1309 0.108,0.1309 l 0,0"
         id="path3856"
         style="fill:#bfdfde;fill-opacity:1;fill-rule:evenodd;stroke:none" />
      <path
         d="m 86.968,62.5641 c 0.689,-1.4153 -0.0379,-2.7551 0,-4.2301 0.114,-0.4199 0.9379,-0.4789 0.689,-0.9762 -0.1922,-0.134 -0.4601,-0.1707 -0.6711,-0.0187 -0.3832,0.2488 -0.5171,0.439 -0.6129,0.8808 -0.096,1.3 0.9387,2.8141 0.0188,4.0391 -0.268,0.268 -0.65,0.5359 -1.0328,0.5539 -0.8242,-0.152 -1.2442,-1.0328 -1.5301,-1.6828 -0.441,-1.7231 -0.557,-3.5422 0.9551,-4.9199 0.8828,-0.5172 1.9527,-1.0731 2.0121,-2.184 0.134,-0.1922 0.4008,-0.3824 0.6129,-0.2672 0.2668,0.0191 0.3051,0.784 0.6879,0.4211 l 0.114,-0.2692 C 88.1148,53.607 88.0211,53.068 87.5238,53.05 c -0.2488,-0.057 -0.5187,0.0777 -0.7277,0.2301 -0.5383,0.5539 -0.1152,1.3969 -1.0172,1.7597 -1.493,0.4614 -2.4691,2.0313 -2.6219,3.5063 -0.0961,1.4148 -0.0382,2.9668 1.1879,4.2109 0.4789,0.3641 1.111,0.5942 1.7231,0.4008 0.3449,-0.0558 0.7468,-0.3047 0.9,-0.5937 l 0,0"
         id="path25"
         style="fill:#bfdfde;fill-opacity:1;fill-rule:evenodd;stroke:none" />
      <path
         d="M 68.25,52.2102 C 65.5238,50.9461 64.6918,47.6988 64.657,47.5609 L 64.5848,47.275 64.866,47.1781 c 0.107,-0.0351 2.6379,-0.8652 5.7258,0.652 3.1141,1.5289 3.7543,4.6121 3.7801,4.741 l 0.064,0.3277 -0.3289,0.052 c -0.1281,0.023 -3.1812,0.5012 -5.857,-0.7406 l 0,0 z m 0.2711,-0.5852 c 1.9898,0.923 4.2648,0.8172 5.1207,0.734 -0.2438,-0.791 -1.0699,-2.8402 -3.334,-3.9512 -2.2719,-1.1117 -4.2168,-0.8469 -4.9277,-0.6918 0.2617,0.7867 1.1418,2.9801 3.141,3.909 l 0,0"
         id="path27"
         style="fill:#bfdfde;fill-opacity:1;fill-rule:evenodd;stroke:none" />
      <path
         d="m 70.968,58.3301 c -2.7321,-1.2332 -3.741,-4.4492 -3.7813,-4.5852 l -0.0929,-0.307 0.305,-0.0949 c 0.1071,-0.034 2.6301,-0.786 5.7282,0.6961 3.1281,1.4949 3.791,4.4738 3.8179,4.5988 l 0.0668,0.3269 -0.3258,0.059 c -0.123,0.0211 -3.032,0.5192 -5.7179,-0.6937 l 0,0 z m 0.2648,-0.5883 c 1.982,0.8961 4.1473,0.7801 4.977,0.693 -0.2547,-0.77 -1.1,-2.7348 -3.361,-3.8149 -2.2527,-1.0761 -4.1847,-0.873 -4.923,-0.734 0.3133,0.802 1.3101,2.9551 3.307,3.8559 l 0,0"
         id="path3860"
         style="fill:#bfdfde;fill-opacity:1;fill-rule:evenodd;stroke:none" />
      <path
         d="M 74.5148,64.2238 C 71.7809,63.0219 70.5961,59.8379 70.5469,59.702 l -0.1199,-0.327 0.3339,-0.093 c 0.1079,-0.0293 2.625,-0.707 5.7289,0.741 3.1411,1.461 3.829,4.3348 3.8582,4.4579 l 0.0719,0.3242 -0.3261,0.064 c -0.1149,0.0239 -2.879,0.543 -5.579,-0.6453 l 0,0 z m 0.2602,-0.591 c 1.9738,0.8692 4.0289,0.7461 4.8348,0.652 -0.268,-0.752 -1.1321,-2.627 -3.391,-3.6778 -2.229,-1.0359 -4.1438,-0.8941 -4.9137,-0.7742 0.3687,0.8172 1.4758,2.925 3.4699,3.8 l 0,0"
         id="path3862"
         style="fill:#bfdfde;fill-opacity:1;fill-rule:evenodd;stroke:none" />
      <path
         d="m 78.0379,70.0461 c -2.7359,-1.1723 -4.0961,-4.327 -4.152,-4.4582 l -0.1468,-0.3481 0.366,-0.091 c 0.1047,-0.0269 2.6137,-0.6289 5.7289,0.784 3.1519,1.4289 3.864,4.1981 3.893,4.316 l 0.08,0.3231 -0.3261,0.0703 c -0.1098,0.0238 -2.7258,0.5617 -5.443,-0.5961 l 0,0 z m 0.2551,-0.5953 c 1.9687,0.8414 3.914,0.7121 4.6898,0.6164 C 82.7051,69.334 81.8219,67.541 79.566,66.5188 77.3609,65.5211 75.459,65.607 74.6617,65.709 c 0.4262,0.8308 1.6453,2.8941 3.6313,3.7418 l 0,0"
         id="path3864"
         style="fill:#bfdfde;fill-opacity:1;fill-rule:evenodd;stroke:none" />
      <path
         d="m 82.916,75.8699 c -2.7449,-1.1398 -4.275,-4.2648 -4.339,-4.3961 l -0.1801,-0.3687 0.3992,-0.0852 c 0.1059,-0.025 2.609,-0.5488 5.7309,0.8262 3.1648,1.3969 3.9007,4.0617 3.93,4.1738 l 0.086,0.3219 -0.3242,0.077 C 88.118,76.443 85.643,77.002 82.916,75.8699 l 0,0 z m 0.2469,-0.5961 c 1.9582,0.8129 3.7988,0.6789 4.548,0.575 -0.2921,-0.7117 -1.1929,-2.4187 -3.4441,-3.4109 -2.1957,-0.9688 -4.077,-0.9289 -4.893,-0.8481 0.4903,0.845 1.811,2.8622 3.7891,3.684 l 0,0"
         id="path3866"
         style="fill:#bfdfde;fill-opacity:1;fill-rule:evenodd;stroke:none" />
      <path
         d="m 88.2918,81.4891 c -2.748,-1.1071 -4.4551,-4.2032 -4.527,-4.334 l -0.2089,-0.3879 0.4332,-0.0832 c 0.1047,-0.0192 2.6007,-0.4711 5.7289,0.8719 3.1808,1.3652 3.9418,3.925 3.9711,4.032 l 0.091,0.3191 -0.3203,0.0821 c -0.0989,0.025 -2.4289,0.605 -5.168,-0.5 l 0,0 z M 88.532,80.893 c 1.9457,0.7832 3.6821,0.6468 4.4039,0.5371 -0.305,-0.6922 -1.225,-2.3192 -3.4718,-3.2801 -2.1762,-0.934 -4.0383,-0.9422 -4.875,-0.8828 0.5476,0.859 1.9738,2.8308 3.9429,3.6258 l 0,0"
         id="path3868"
         style="fill:#bfdfde;fill-opacity:1;fill-rule:evenodd;stroke:none" />
      <path
         d="M 94.0309,86.8031 C 91.277,85.725 89.3988,82.6578 89.3219,82.527 l -0.2489,-0.409 0.4739,-0.075 c 0.1039,-0.016 2.5929,-0.393 5.7281,0.9148 3.1918,1.3301 3.9758,3.7832 4.009,3.8871 l 0.0949,0.3172 -0.3148,0.0879 c -0.0911,0.0262 -2.2774,0.6309 -5.0332,-0.4469 l 0,0 z m 0.2351,-0.6023 c 1.9301,0.7543 3.566,0.6152 4.261,0.5031 -0.32,-0.6719 -1.2582,-2.218 -3.5,-3.1519 -2.1442,-0.8942 -3.9922,-0.9532 -4.8571,-0.9149 0.6149,0.8719 2.1442,2.7988 4.0961,3.5637 l 0,0"
         id="path3870"
         style="fill:#bfdfde;fill-opacity:1;fill-rule:evenodd;stroke:none" />
      <path
         d="m 100.002,91.7051 c -2.7602,-1.0492 -4.8102,-4.086 -4.8961,-4.2153 L 94.8168,87.057 95.334,86.9898 c 0.1051,-0.0128 2.584,-0.3128 5.729,0.9614 3.205,1.2976 4.014,3.6437 4.045,3.7449 l 0.101,0.309 -0.31,0.098 c -0.085,0.027 -2.126,0.6539 -4.897,-0.398 l 0,0 z m 0.231,-0.602 c 1.911,0.725 3.449,0.5828 4.113,0.4649 -0.332,-0.65 -1.293,-2.116 -3.524,-3.0211 -2.1282,-0.859 -3.9532,-0.9598 -4.8361,-0.9438 0.6801,0.8797 2.2989,2.761 4.2471,3.5 l 0,0"
         id="path3872"
         style="fill:#bfdfde;fill-opacity:1;fill-rule:evenodd;stroke:none" />
      <path
         d="m 106.069,96.098 c -2.767,-1.0199 -4.988,-4.03 -5.083,-4.1582 l -0.33,-0.4539 0.559,-0.057 c 0.104,-0.0098 2.579,-0.2359 5.731,1.0031 3.217,1.2629 4.048,3.5059 4.084,3.602 l 0.106,0.3051 -0.305,0.107 c -0.078,0.0289 -1.978,0.6769 -4.762,-0.3481 l 0,0 z m 0.221,-0.605 c 1.892,0.6961 3.337,0.5539 3.971,0.4308 -0.348,-0.6258 -1.324,-2.0168 -3.553,-2.8918 -2.098,-0.8242 -3.898,-0.966 -4.802,-0.9742 0.743,0.8883 2.45,2.7211 4.384,3.4352 l 0,0"
         id="path3874"
         style="fill:#bfdfde;fill-opacity:1;fill-rule:evenodd;stroke:none" />
      <path
         d="m 63.8898,58.3738 c -0.0808,-0.1027 -1.975,-2.5617 -2.1699,-5.5218 -0.1949,-3.0129 2.2692,-5.3141 2.3762,-5.4098 l 0.2156,-0.2012 0.2203,0.2012 c 0.0828,0.075 2.034,1.9047 2.1828,5.3617 0.1532,3.4801 -2.2628,5.5328 -2.3648,5.618 l -0.2562,0.2152 -0.204,-0.2633 0,0 z m -1.5328,-5.859 c 0,0.0981 0.0028,0.1954 0.0078,0.2942 0.145,2.216 1.343,4.1691 1.825,4.8719 0.559,-0.5739 1.8891,-2.1911 1.8891,-4.5719 0,-0.091 -0.0031,-0.1852 -0.0078,-0.2789 -0.1102,-2.5391 -1.282,-4.1313 -1.7641,-4.6832 -0.5461,0.5851 -1.95,2.2871 -1.95,4.3679 l 0,0"
         id="path3876"
         style="fill:#bfdfde;fill-opacity:1;fill-rule:evenodd;stroke:none" />
      <path
         d="m 67.7348,65.0051 c -0.0637,-0.0731 -1.6047,-1.7711 -2.2629,-4.2153 -0.0891,-0.3308 -0.159,-0.6867 -0.202,-1.0531 -0.3551,-2.9219 1.7559,-5.3168 1.8469,-5.4187 l 0.209,-0.2328 0.2402,0.2027 c 0.0828,0.073 2.0758,1.8012 2.4809,5.157 0.4058,3.393 -1.761,5.4871 -1.852,5.5762 l -0.2379,0.225 -0.2222,-0.241 0,0 z M 65.875,59.0777 c 0,0.1903 0.0109,0.3852 0.0348,0.5801 0.0402,0.3383 0.1019,0.6621 0.184,0.9641 0.4722,1.75 1.448,3.1172 1.8871,3.6711 0.4629,-0.5512 1.4711,-1.9832 1.4711,-4.0242 0,-0.2407 -0.0161,-0.4887 -0.045,-0.7477 -0.2941,-2.4453 -1.5121,-3.9613 -2.0222,-4.5039 -0.4547,0.6008 -1.5098,2.1879 -1.5098,4.0605 l 0,0"
         id="path3878"
         style="fill:#bfdfde;fill-opacity:1;fill-rule:evenodd;stroke:none" />
      <path
         d="m 72.0449,71.223 c -0.0691,-0.064 -1.6851,-1.571 -2.507,-3.9968 -0.1039,-0.309 -0.1899,-0.6434 -0.257,-1.0203 -0.5129,-2.8258 1.2441,-5.311 1.3191,-5.418 l 0.1961,-0.2731 0.2648,0.209 c 0.0852,0.066 2.1211,1.6934 2.777,4.95 0.6641,3.2992 -1.2551,5.4391 -1.3379,5.527 l -0.216,0.2414 -0.2391,-0.2192 0,0 z m -2.2101,-6.0582 c 0,0.302 0.0242,0.6161 0.0832,0.9293 0.0609,0.3438 0.1371,0.6469 0.23,0.9258 0.584,1.7219 1.6188,2.9692 2.0868,3.475 0.3691,-0.5219 1.0953,-1.7629 1.0953,-3.4699 0,-0.3859 -0.0383,-0.7949 -0.1262,-1.225 -0.4711,-2.3473 -1.7309,-3.7891 -2.2769,-4.3238 -0.359,0.6066 -1.0922,2.041 -1.0922,3.6886 l 0,0"
         id="path3880"
         style="fill:#bfdfde;fill-opacity:1;fill-rule:evenodd;stroke:none" />
      <path
         d="m 76.784,77.034 c -0.0723,-0.0559 -1.7629,-1.3699 -2.7531,-3.777 -0.118,-0.284 -0.2168,-0.6058 -0.311,-0.9832 -0.664,-2.7316 0.7309,-5.3058 0.7899,-5.4148 l 0.1761,-0.3192 0.295,0.2153 c 0.0879,0.0609 2.164,1.5859 3.0711,4.741 0.921,3.2027 -0.7461,5.3879 -0.8192,5.4789 l -0.1949,0.252 -0.2539,-0.193 0,0 z m -2.593,-6.2789 c 0,0.4437 0.0449,0.907 0.1578,1.3668 0.0832,0.3449 0.1742,0.6371 0.2782,0.891 0.696,1.691 1.7847,2.8199 2.2828,3.2769 0.275,-0.4699 0.7672,-1.5027 0.7672,-2.9 0,-0.5238 -0.0692,-1.1019 -0.2461,-1.7148 -0.645,-2.2449 -1.9418,-3.6152 -2.525,-4.1449 -0.2571,0.584 -0.7149,1.814 -0.7149,3.225 l 0,0"
         id="path3882"
         style="fill:#bfdfde;fill-opacity:1;fill-rule:evenodd;stroke:none" />
      <path
         d="m 81.916,82.4449 c -0.0762,-0.0461 -1.8332,-1.1668 -3,-3.557 -0.1312,-0.2699 -0.2492,-0.5699 -0.364,-0.9438 -0.818,-2.6382 0.2168,-5.298 0.2628,-5.4101 l 0.1469,-0.3668 0.3321,0.2168 c 0.0871,0.0621 2.2042,1.4851 3.3601,4.5348 1.177,3.1062 -0.2351,5.3363 -0.2969,5.4292 l -0.1742,0.2649 -0.2668,-0.168 0,0 z m -3.0301,-6.6601 c 0,0.6293 0.0758,1.3031 0.2821,1.9664 0.107,0.3429 0.2109,0.6156 0.3258,0.8539 0.816,1.666 1.9589,2.6828 2.4812,3.091 0.198,-0.4102 0.5,-1.216 0.5,-2.3039 0,-0.6594 -0.1102,-1.416 -0.4262,-2.2422 -0.807,-2.1391 -2.1449,-3.441 -2.7718,-3.9629 -0.1551,0.5219 -0.3911,1.4817 -0.3911,2.5977 l 0,0"
         id="path3884"
         style="fill:#bfdfde;fill-opacity:1;fill-rule:evenodd;stroke:none" />
      <path
         d="m 87.409,87.4609 c -0.0781,-0.0371 -1.9,-0.966 -3.2492,-3.3359 -0.1438,-0.2551 -0.2778,-0.543 -0.4168,-0.9051 -0.9742,-2.5418 -0.2891,-5.284 -0.259,-5.3988 l 0.1058,-0.4199 0.3731,0.225 c 0.091,0.0527 2.2469,1.3777 3.6488,4.3258 1.4321,3.007 0.2762,5.2769 0.225,5.3699 l -0.1469,0.2812 -0.2808,-0.1422 0,0 z m -3.5379,-7.28 c 0,0.8531 0.1098,1.857 0.4738,2.8089 0.1281,0.3301 0.2461,0.5891 0.3781,0.8161 0.9309,1.6371 2.1208,2.5421 2.6719,2.898 0.1211,-0.3371 0.2871,-0.9211 0.2871,-1.7238 0,-0.7641 -0.1531,-1.7063 -0.6511,-2.75 C 86.057,80.184 84.677,78.9609 84.016,78.452 c -0.0672,0.396 -0.1449,1.007 -0.1449,1.7289 l 0,0"
         id="path3886"
         style="fill:#bfdfde;fill-opacity:1;fill-rule:evenodd;stroke:none" />
      <path
         d="M 93.2391,92.0898 C 93.159,92.0578 91.2809,91.3199 89.7418,88.9781 89.5809,88.732 89.4289,88.4488 89.2711,88.1121 88.1449,85.666 88.4758,82.841 88.4918,82.723 l 0.0562,-0.4718 0.4168,0.2277 c 0.095,0.0512 2.2891,1.2738 3.9411,4.1211 1.6839,2.9051 0.7859,5.2121 0.748,5.3078 l -0.1199,0.2942 -0.2949,-0.1122 0,0 z m -4.1551,-8.257 c 0,1.009 0.123,2.5981 0.773,4.0082 0.1438,0.3102 0.2828,0.5641 0.425,0.7809 1.0539,1.6082 2.293,2.4062 2.866,2.7109 0.061,-0.2566 0.1258,-0.6398 0.1258,-1.1449 0,-0.8481 -0.1898,-1.9957 -0.9258,-3.2649 -1.132,-1.9531 -2.55,-3.1011 -3.2542,-3.5929 -0.0047,0.1469 -0.0098,0.3097 -0.0098,0.5027 l 0,0"
         id="path3888"
         style="fill:#bfdfde;fill-opacity:1;fill-rule:evenodd;stroke:none" />
      <path
         d="m 99.3789,96.3359 c -0.0801,-0.0238 -2.0148,-0.575 -3.743,-2.8898 -0.182,-0.2402 -0.3519,-0.5133 -0.525,-0.8231 -1.2839,-2.35 -1.2961,-5.2582 -1.2961,-5.382 l 0.002,-0.516 0.4641,0.2277 c 0.0949,0.0485 2.3289,1.1723 4.2261,3.9172 1.937,2.8012 1.2981,5.1449 1.2688,5.2422 l -0.0879,0.307 -0.309,-0.0832 0,0 z m -3.7,-4.0238 c 0.1551,0.2859 0.3102,0.5301 0.4731,0.7488 1.1781,1.5762 2.4668,2.2692 3.0621,2.5231 0.0179,-0.15 0.0339,-0.3309 0.0339,-0.5641 0,-0.8648 -0.2113,-2.25 -1.271,-3.7828 -1.2872,-1.8609 -2.745,-2.9383 -3.4879,-3.4121 0.0687,0.9441 0.3089,2.882 1.1898,4.4871 l 0,0"
         id="path3890"
         style="fill:#bfdfde;fill-opacity:1;fill-rule:evenodd;stroke:none" />
      <path
         d="m 105.777,100.203 c -0.083,-0.014 -2.066,-0.3831 -3.992,-2.66 -1.9162,-2.261 -2.3662,-5.9989 -2.3842,-6.1571 L 99.3359,90.827 99.85,91.0551 c 0.0969,0.0418 2.373,1.0668 4.518,3.7129 2.182,2.698 1.799,5.0742 1.784,5.1718 l -0.057,0.3192 -0.318,-0.056 0,0 z m -3.5,-3.0768 c 1.305,1.5429 2.643,2.1347 3.258,2.341 0.004,-0.016 0.004,-0.025 0.004,-0.0434 0,-0.7437 -0.193,-2.4207 -1.675,-4.2519 -1.434,-1.7707 -2.941,-2.7797 -3.722,-3.2321 0.208,1.1481 0.794,3.6043 2.135,5.1864 l 0,0"
         id="path3892"
         style="fill:#bfdfde;fill-opacity:1;fill-rule:evenodd;stroke:none" />
      <path
         d="m 44.518,68.2051 c 0,-15.602 8.4449,-30.6121 22.039,-39.1762 l 0.5618,-0.3539 0.405,0.527 c 0.1153,0.1511 0.1602,0.291 0.1602,0.423 0,0.334 -0.286,0.5969 -0.4473,0.7461 l -0.7859,0.7551 c -2.802,3.1816 -3.5528,6.1988 -3.5528,8.5199 0,2.5648 0.9168,4.2769 0.9918,4.409 l 0.252,0.4519 -0.3457,0.3879 c -5.7441,6.4082 -8.7781,14.468 -8.7781,23.3102 0,19.457 15.8289,35.2859 35.2859,35.2859 5.4102,0 10.6011,-1.191 15.4271,-3.5398 l 0.5,-0.2434 7.094,8.0912 -0.788,0.439 c -6.76,3.764 -14.4503,5.752 -22.2331,5.752 C 65.057,113.99 44.518,93.4488 44.518,68.2051 l 0,0 z m 1.4558,0 c 0,24.441 19.8852,44.3289 44.3301,44.3289 7.2309,0 14.3701,-1.792 20.7171,-5.153 -0.928,-1.06 -4.599,-5.247 -5.164,-5.889 -4.88,2.285 -10.109,3.454 -15.5531,3.454 -20.2601,0 -36.7449,-16.4812 -36.7449,-36.7409 0,-9.0391 3.0668,-17.284 8.843,-23.9039 -0.3309,-0.7684 -0.9231,-2.4512 -0.9231,-4.6801 0,-1.843 0.4281,-4.0551 1.7262,-6.4082 C 52.4777,41.759 45.9738,54.7512 45.9738,68.2051 l 0,0"
         id="path3894"
         style="fill:#bfdfde;fill-opacity:1;fill-rule:evenodd;stroke:none" />
      <path
         d="m 106.364,101.259 c -5.026,2.449 -10.4281,3.687 -16.0601,3.687 -20.2601,0 -36.7449,-16.4812 -36.7449,-36.7409 0,-9.2082 3.166,-17.6031 9.1539,-24.2821 l 0.6289,-0.7011 2.793,4.223 -0.1489,0.1719 c -0.25,0.0293 -0.457,0.066 -0.6058,0.0992 0.0379,0.1149 0.0929,0.266 0.1597,0.434 -0.2199,0.2621 -0.4398,0.5238 -0.6488,0.7922 -0.2262,-0.3602 -0.4371,-0.625 -0.584,-0.7953 -0.5461,0.5851 -1.95,2.2871 -1.95,4.3679 0,0.0672 0.0028,0.1321 0.0059,0.1993 -2.6141,4.6019 -3.9399,9.7871 -3.9399,15.491 0,17.5777 14.302,31.8789 31.8809,31.8789 4.3149,0 8.477,-0.8391 12.3921,-2.4981 0.418,0.4332 0.833,0.775 1.217,1.043 -4.286,1.9221 -8.854,2.9111 -13.6091,2.9111 -18.382,0 -33.3391,-14.9541 -33.3391,-33.3349 0,-7.9711 2.4879,-14.9781 7.361,-20.8539 -0.284,-0.4313 -0.6797,-1.0301 -1.134,-1.7153 -5.3359,6.2852 -8.1738,14.0551 -8.1738,22.5692 0,19.457 15.8289,35.2859 35.2859,35.2859 5.1691,0 10.1321,-1.1 14.7741,-3.246 -0.193,-0.4212 -0.384,-0.8329 -0.574,-1.245 0.426,0.2398 0.786,0.384 1.031,0.4672 0.004,-0.016 0.004,-0.025 0.004,-0.0434 0,-0.5418 -0.105,-1.5816 -0.736,-2.8148 l 0.166,-0.0801 2.039,4.4201 -0.644,0.31 0,0"
         id="path3896"
         style="fill:#bfdfde;fill-opacity:1;fill-rule:evenodd;stroke:none" />
      <path
         d="m 106.039,108.462 -3.512,-4.443 c 0.321,-0.11 0.641,-0.225 0.961,-0.344 l 3.487,4.41 c -0.311,0.13 -0.623,0.255 -0.936,0.377 l 0,0"
         id="path3898"
         style="fill:#bfdfde;fill-opacity:1;fill-rule:evenodd;stroke:none" />
      <path
         d="m 99.1629,110.508 -2.0481,-5.072 c 0.3243,-0.06 0.645,-0.123 0.9661,-0.19 l 2.0401,5.052 c -0.3183,0.075 -0.6382,0.143 -0.9581,0.21 l 0,0"
         id="path3900"
         style="fill:#bfdfde;fill-opacity:1;fill-rule:evenodd;stroke:none" />
      <path
         d="m 90.9848,111.422 -0.5028,-5.376 c 0.3239,-0.001 0.6469,-0.006 0.97,-0.016 l 0.5031,5.366 c -0.3231,0.012 -0.6461,0.021 -0.9703,0.026 l 0,0"
         id="path3902"
         style="fill:#bfdfde;fill-opacity:1;fill-rule:evenodd;stroke:none" />
      <path
         d="m 83.0168,110.815 1.0223,-5.288 c 0.3179,0.053 0.6367,0.103 0.957,0.148 l -1.0231,5.292 c -0.3203,-0.047 -0.6382,-0.098 -0.9562,-0.152 l 0,0"
         id="path3904"
         style="fill:#bfdfde;fill-opacity:1;fill-rule:evenodd;stroke:none" />
      <path
         d="m 75.2848,108.74 2.4172,-4.851 c 0.307,0.108 0.616,0.213 0.9257,0.314 l -2.425,4.865 c -0.3078,-0.106 -0.6136,-0.215 -0.9179,-0.328 l 0,0"
         id="path3906"
         style="fill:#bfdfde;fill-opacity:1;fill-rule:evenodd;stroke:none" />
      <path
         d="m 67.9508,105.192 3.6082,-4.121 c 0.2871,0.164 0.575,0.323 0.866,0.48 l -3.6281,4.142 c -0.284,-0.164 -0.566,-0.331 -0.8461,-0.501 l 0,0"
         id="path3908"
         style="fill:#bfdfde;fill-opacity:1;fill-rule:evenodd;stroke:none" />
      <path
         d="m 61.2859,100.219 4.5559,-3.1639 c 0.2562,0.216 0.5141,0.4308 0.775,0.641 L 62.032,100.88 c -0.2511,-0.217 -0.5,-0.438 -0.7461,-0.661 l 0,0"
         id="path3910"
         style="fill:#bfdfde;fill-opacity:1;fill-rule:evenodd;stroke:none" />
      <path
         d="m 55.618,93.975 5.2328,-2.0371 c 0.2133,0.2652 0.4301,0.5269 0.6512,0.7851 l -5.2743,2.052 c -0.2058,-0.2641 -0.4097,-0.5309 -0.6097,-0.8 l 0,0"
         id="path3912"
         style="fill:#bfdfde;fill-opacity:1;fill-rule:evenodd;stroke:none" />
      <path
         d="m 51.2391,86.7051 5.632,-0.7852 c 0.1617,0.3051 0.3277,0.6082 0.4977,0.9071 l -5.6821,0.7921 c -0.1527,-0.3019 -0.3019,-0.607 -0.4476,-0.914 l 0,0"
         id="path3914"
         style="fill:#bfdfde;fill-opacity:1;fill-rule:evenodd;stroke:none" />
      <path
         d="m 48.3719,78.7289 5.7422,0.5492 c 0.1027,0.336 0.2089,0.6707 0.3218,1.0028 l -5.8011,-0.5547 c -0.091,-0.3313 -0.1789,-0.6633 -0.2629,-0.9973 l 0,0"
         id="path3916"
         style="fill:#bfdfde;fill-opacity:1;fill-rule:evenodd;stroke:none" />
      <path
         d="m 47.1277,70.3738 5.5543,1.9301 c 0.0399,0.359 0.0828,0.716 0.1321,1.0711 L 47.193,71.4211 C 47.168,71.073 47.1449,70.7238 47.1277,70.3738 l 0,0"
         id="path3918"
         style="fill:#bfdfde;fill-opacity:1;fill-rule:evenodd;stroke:none" />
      <path
         d="m 47.5578,61.9371 5.018,3.2938 C 52.548,65.6 52.523,65.9699 52.5059,66.3418 L 47.409,62.9949 c 0.0449,-0.3539 0.0949,-0.7058 0.1488,-1.0578 l 0,0"
         id="path3920"
         style="fill:#bfdfde;fill-opacity:1;fill-rule:evenodd;stroke:none" />
      <path
         d="m 49.698,53.6801 4.0731,4.4859 c -0.1012,0.3738 -0.1922,0.7512 -0.2813,1.1289 L 49.3309,54.716 c 0.1179,-0.348 0.2402,-0.691 0.3671,-1.0359 l 0,0"
         id="path3922"
         style="fill:#bfdfde;fill-opacity:1;fill-rule:evenodd;stroke:none" />
      <path
         d="m 53.5301,45.7898 2.8808,5.4813 c -0.18,0.3566 -0.3601,0.7129 -0.5281,1.0758 L 52.948,46.7641 c 0.1899,-0.3262 0.3829,-0.6512 0.5821,-0.9743 l 0,0"
         id="path3924"
         style="fill:#bfdfde;fill-opacity:1;fill-rule:evenodd;stroke:none" />
      <path
         d="m 58.4379,39.216 1.5398,6.3512 C 59.723,45.9031 59.473,46.241 59.2301,46.584 l -1.5703,-6.4789 c 0.255,-0.3 0.5152,-0.5961 0.7781,-0.8891 l 0,0"
         id="path3926"
         style="fill:#bfdfde;fill-opacity:1;fill-rule:evenodd;stroke:none" />
      <path
         d="m 105.319,96.209 c 0.133,-0.0879 0.265,-0.175 0.394,-0.2629 0.118,0.0527 0.235,0.1078 0.356,0.1519 0.141,0.052 0.281,0.0981 0.417,0.1418 -0.297,0.1961 -0.576,0.4161 -0.842,0.6493 -0.092,-0.22 -0.201,-0.4469 -0.325,-0.6801 l 0,0"
         id="path3928"
         style="fill:#bfdfde;fill-opacity:1;fill-rule:evenodd;stroke:none" />
    </g>
  </g>
</svg>
