<?xml version="1.0" encoding="UTF-8" standalone="no"?>
<!-- Created with Inkscape (http://www.inkscape.org/) -->

<svg
   xmlns:dc="http://purl.org/dc/elements/1.1/"
   xmlns:cc="http://creativecommons.org/ns#"
   xmlns:rdf="http://www.w3.org/1999/02/22-rdf-syntax-ns#"
   xmlns:svg="http://www.w3.org/2000/svg"
   xmlns="http://www.w3.org/2000/svg"
   xmlns:xlink="http://www.w3.org/1999/xlink"
   xmlns:sodipodi="http://sodipodi.sourceforge.net/DTD/sodipodi-0.dtd"
   xmlns:inkscape="http://www.inkscape.org/namespaces/inkscape"
   version="1.0"
   id="svg2"
   sodipodi:version="0.32"
   inkscape:version="0.48.4 r9939"
   sodipodi:docname="pytub.svg"
   width="168.48511"
   height="130.07521">
  <metadata
     id="metadata371">
    <rdf:RDF>
      <cc:Work
         rdf:about="">
        <dc:format>image/svg+xml</dc:format>
        <dc:type
           rdf:resource="http://purl.org/dc/dcmitype/StillImage" />
        <dc:title></dc:title>
      </cc:Work>
    </rdf:RDF>
  </metadata>
  <sodipodi:namedview
     inkscape:window-height="882"
     inkscape:window-width="1233"
     inkscape:pageshadow="2"
     inkscape:pageopacity="0.0"
     guidetolerance="10.0"
     gridtolerance="10.0"
     objecttolerance="10.0"
     borderopacity="1.0"
     bordercolor="#666666"
     pagecolor="#ffffff"
     id="base"
     inkscape:zoom="2.1461642"
     inkscape:cx="31.45018"
     inkscape:cy="-1.7878944"
     inkscape:window-x="65"
     inkscape:window-y="24"
     inkscape:current-layer="svg2"
     width="210mm"
     height="40mm"
     units="mm"
     showgrid="false"
     fit-margin-top="1"
     fit-margin-left="1"
     fit-margin-right="1"
     fit-margin-bottom="1"
     inkscape:window-maximized="0" />
  <defs
     id="defs4">
    <linearGradient
       id="linearGradient2795">
      <stop
         style="stop-color:#b8b8b8;stop-opacity:0.49803922;"
         offset="0"
         id="stop2797" />
      <stop
         style="stop-color:#7f7f7f;stop-opacity:0;"
         offset="1"
         id="stop2799" />
    </linearGradient>
    <linearGradient
       id="linearGradient2787">
      <stop
         style="stop-color:#7f7f7f;stop-opacity:0.5;"
         offset="0"
         id="stop2789" />
      <stop
         style="stop-color:#7f7f7f;stop-opacity:0;"
         offset="1"
         id="stop2791" />
    </linearGradient>
    <linearGradient
       id="linearGradient3676">
      <stop
         style="stop-color:#b2b2b2;stop-opacity:0.5;"
         offset="0"
         id="stop3678" />
      <stop
         style="stop-color:#b3b3b3;stop-opacity:0;"
         offset="1"
         id="stop3680" />
    </linearGradient>
    <linearGradient
       id="linearGradient3236">
      <stop
         style="stop-color:#f4f4f4;stop-opacity:1"
         offset="0"
         id="stop3244" />
      <stop
         style="stop-color:white;stop-opacity:1"
         offset="1"
         id="stop3240" />
    </linearGradient>
    <linearGradient
       id="linearGradient4671">
      <stop
         style="stop-color:#ffd43b;stop-opacity:1;"
         offset="0"
         id="stop4673" />
      <stop
         style="stop-color:#ffe873;stop-opacity:1"
         offset="1"
         id="stop4675" />
    </linearGradient>
    <linearGradient
       id="linearGradient4689">
      <stop
         style="stop-color:#5a9fd4;stop-opacity:1;"
         offset="0"
         id="stop4691" />
      <stop
         style="stop-color:#306998;stop-opacity:1;"
         offset="1"
         id="stop4693" />
    </linearGradient>
    <linearGradient
       x1="224.23996"
       y1="144.75717"
       x2="-65.308502"
       y2="144.75717"
       id="linearGradient2987"
       xlink:href="#linearGradient4671"
       gradientUnits="userSpaceOnUse"
       gradientTransform="translate(100.2702,99.61116)" />
    <linearGradient
       x1="172.94208"
       y1="77.475983"
       x2="26.670298"
       y2="76.313133"
       id="linearGradient2990"
       xlink:href="#linearGradient4689"
       gradientUnits="userSpaceOnUse"
       gradientTransform="translate(100.2702,99.61116)" />
    <linearGradient
       inkscape:collect="always"
       xlink:href="#linearGradient4689"
       id="linearGradient2587"
       gradientUnits="userSpaceOnUse"
       gradientTransform="translate(100.2702,99.61116)"
       x1="172.94208"
       y1="77.475983"
       x2="26.670298"
       y2="76.313133" />
    <linearGradient
       inkscape:collect="always"
       xlink:href="#linearGradient4671"
       id="linearGradient2589"
       gradientUnits="userSpaceOnUse"
       gradientTransform="translate(100.2702,99.61116)"
       x1="224.23996"
       y1="144.75717"
       x2="-65.308502"
       y2="144.75717" />
    <linearGradient
       inkscape:collect="always"
       xlink:href="#linearGradient4689"
       id="linearGradient2248"
       gradientUnits="userSpaceOnUse"
       gradientTransform="translate(100.2702,99.61116)"
       x1="172.94208"
       y1="77.475983"
       x2="26.670298"
       y2="76.313133" />
    <linearGradient
       inkscape:collect="always"
       xlink:href="#linearGradient4671"
       id="linearGradient2250"
       gradientUnits="userSpaceOnUse"
       gradientTransform="translate(100.2702,99.61116)"
       x1="224.23996"
       y1="144.75717"
       x2="-65.308502"
       y2="144.75717" />
    <linearGradient
       inkscape:collect="always"
       xlink:href="#linearGradient4671"
       id="linearGradient2255"
       gradientUnits="userSpaceOnUse"
       gradientTransform="matrix(0.562541,0,0,0.567972,-11.5974,-7.60954)"
       x1="224.23996"
       y1="144.75717"
       x2="-65.308502"
       y2="144.75717" />
    <linearGradient
       inkscape:collect="always"
       xlink:href="#linearGradient4689"
       id="linearGradient2258"
       gradientUnits="userSpaceOnUse"
       gradientTransform="matrix(0.562541,0,0,0.567972,-11.5974,-7.60954)"
       x1="172.94208"
       y1="76.176224"
       x2="26.670298"
       y2="76.313133" />
    <radialGradient
       inkscape:collect="always"
       xlink:href="#linearGradient2795"
       id="radialGradient2801"
       cx="61.518883"
       cy="132.28575"
       fx="61.518883"
       fy="132.28575"
       r="29.036913"
       gradientTransform="matrix(1,0,0,0.177966,0,108.7434)"
       gradientUnits="userSpaceOnUse" />
    <linearGradient
       inkscape:collect="always"
       xlink:href="#linearGradient4671"
       id="linearGradient1475"
       gradientUnits="userSpaceOnUse"
       gradientTransform="matrix(0.562541,0,0,0.567972,-9.399749,-5.305317)"
       x1="150.96111"
       y1="192.35176"
       x2="112.03144"
       y2="137.27299" />
    <linearGradient
       inkscape:collect="always"
       xlink:href="#linearGradient4689"
       id="linearGradient1478"
       gradientUnits="userSpaceOnUse"
       gradientTransform="matrix(0.562541,0,0,0.567972,-9.399749,-5.305317)"
       x1="26.648937"
       y1="20.603781"
       x2="135.66525"
       y2="114.39767" />
    <radialGradient
       inkscape:collect="always"
       xlink:href="#linearGradient2795"
       id="radialGradient1480"
       gradientUnits="userSpaceOnUse"
       gradientTransform="matrix(2.382716e-8,-0.296405,1.43676,4.683673e-7,-128.544,150.5202)"
       cx="61.518883"
       cy="132.28575"
       fx="61.518883"
       fy="132.28575"
       r="29.036913" />
    <linearGradient
       inkscape:collect="always"
       xlink:href="#linearGradient4689"
       id="linearGradient3110"
       gradientUnits="userSpaceOnUse"
       gradientTransform="matrix(0.562541,0,0,0.567972,-9.399749,-5.305317)"
       x1="26.648937"
       y1="20.603781"
       x2="135.66525"
       y2="114.39767" />
    <linearGradient
       inkscape:collect="always"
       xlink:href="#linearGradient4671"
       id="linearGradient3112"
       gradientUnits="userSpaceOnUse"
       gradientTransform="matrix(0.562541,0,0,0.567972,-9.399749,-5.305317)"
       x1="150.96111"
       y1="192.35176"
       x2="112.03144"
       y2="137.27299" />
    <radialGradient
       inkscape:collect="always"
       xlink:href="#linearGradient2795"
       id="radialGradient3114"
       gradientUnits="userSpaceOnUse"
       gradientTransform="matrix(2.382716e-8,-0.296405,1.43676,4.683673e-7,-128.544,150.5202)"
       cx="61.518883"
       cy="132.28575"
       fx="61.518883"
       fy="132.28575"
       r="29.036913" />
  </defs>
  <g
     id="g3102"
     transform="matrix(0.62632325,0,0,0.62632325,0.81321484,38.179524)">
    <path
       id="path1948"
       d="m 60.510156,6.3979729 c -4.583653,0.021298 -8.960939,0.4122177 -12.8125,1.09375 C 36.35144,9.4962267 34.291407,13.691825 34.291406,21.429223 l 0,10.21875 26.8125,0 0,3.40625 -26.8125,0 -10.0625,0 c -7.792459,0 -14.6157592,4.683717 -16.7500002,13.59375 -2.46182,10.212966 -2.5710151,16.586023 0,27.25 1.9059283,7.937852 6.4575432,13.593748 14.2500002,13.59375 l 9.21875,0 0,-12.25 c 0,-8.849902 7.657144,-16.656248 16.75,-16.65625 l 26.78125,0 c 7.454951,0 13.406253,-6.138164 13.40625,-13.625 l 0,-25.53125 c 0,-7.266339 -6.12998,-12.7247775 -13.40625,-13.9375001 -4.605987,-0.7667253 -9.385097,-1.1150483 -13.96875,-1.09375 z m -14.5,8.2187501 c 2.769547,0 5.03125,2.298646 5.03125,5.125 -2e-6,2.816336 -2.261703,5.09375 -5.03125,5.09375 -2.779476,-1e-6 -5.03125,-2.277415 -5.03125,-5.09375 -1e-6,-2.826353 2.251774,-5.125 5.03125,-5.125 z"
       style="fill:url(#linearGradient3110);fill-opacity:1"
       inkscape:connector-curvature="0" />
    <path
       id="path1950"
       d="m 91.228906,35.054223 0,11.90625 c 0,9.230755 -7.825895,16.999999 -16.75,17 l -26.78125,0 c -7.335833,0 -13.406249,6.278483 -13.40625,13.625 l 0,25.531247 c 0,7.26634 6.318588,11.54032 13.40625,13.625 8.487331,2.49561 16.626237,2.94663 26.78125,0 6.750155,-1.95439 13.406253,-5.88761 13.40625,-13.625 l 0,-10.218747 -26.78125,0 0,-3.40625 26.78125,0 13.406254,0 c 7.79246,0 10.69625,-5.435408 13.40624,-13.59375 2.79933,-8.398886 2.68022,-16.475776 0,-27.25 -1.92578,-7.757441 -5.60387,-13.59375 -13.40624,-13.59375 l -10.062504,0 z m -15.0625,64.65625 c 2.779478,3e-6 5.03125,2.277417 5.03125,5.093747 -2e-6,2.82635 -2.251775,5.125 -5.03125,5.125 -2.76955,0 -5.03125,-2.29865 -5.03125,-5.125 2e-6,-2.81633 2.261697,-5.093747 5.03125,-5.093747 z"
       style="fill:url(#linearGradient3112);fill-opacity:1"
       inkscape:connector-curvature="0" />
    <path
       transform="matrix(0.73406,0,0,0.809524,16.24958,27.00935)"
       d="m 110.46717,132.28575 c 0,4.75334 -21.914896,8.60668 -48.948287,8.60668 -27.033391,0 -48.948284,-3.85334 -48.948284,-8.60668 0,-4.75334 21.914893,-8.60668 48.948284,-8.60668 27.033391,0 48.948287,3.85334 48.948287,8.60668 z"
       sodipodi:ry="8.6066771"
       sodipodi:rx="48.948284"
       sodipodi:cy="132.28575"
       sodipodi:cx="61.518883"
       id="path1894"
       style="opacity:0.44382025;fill:url(#radialGradient3114);fill-opacity:1;fill-rule:nonzero;stroke:none"
       sodipodi:type="arc" />
  </g>
  <g
     id="layer1"
     transform="matrix(0.55654645,0,0,0.55654645,-232.31782,-121.73498)">
    <path
       inkscape:connector-curvature="0"
       d="m 702.14163,311.36462 0.82897,-8.60777 -13.9205,0 c -3.8894,0 -5.48999,-1.85607 -5.27102,-4.07188 0.0626,-0.66735 0.0938,-1.02188 0.18769,-1.37641 l -10.73495,-0.0417 c -0.30781,3.23248 1.38684,5.27102 4.93735,5.93316 l -0.004,0.0888 -4.71316,0 -0.68299,8.07598 29.37382,0 z m 2.37222,-24.65024 -40.43723,0 -0.82897,8.53999 40.44244,0 0.82376,-8.53999 z m -30.48955,-11.52221 -9.22298,0 -0.88111,8.60256 9.23341,0 0.87068,-8.60256 z m 31.60527,0 -29.10271,0 -0.87068,8.60256 29.0975,0 0.87589,-8.60256 z m -48.37765,89.56043 24.85357,0 c 9.50452,0 15.74007,-5.42743 16.44392,-13.08631 0.61,-6.58487 -4.34299,-12.58059 -14.34802,-12.58059 -7.45555,0 -15.39597,4.74966 -16.01118,11.34495 -0.22941,2.48692 0.3808,3.68085 1.33469,5.38572 l -11.54828,0 -0.7247,8.93623 z m 30.39049,-49.42038 c 2.69025,1.80914 4.35342,5.67247 4.1188,8.15939 -0.0784,0.83419 -0.29197,1.93949 -0.73513,2.58599 L 680.9272,313.72641 c -5.80281,1.97598 -9.85905,6.1782 -10.36477,11.66298 -0.63607,6.81948 4.74444,12.44503 14.69733,12.44503 8.01341,0 15.11443,-5.29709 15.81307,-12.76828 0.41709,-4.52025 -0.37539,-6.69435 -2.64334,-10.42734 l -10.78708,0.69342 z m -10.84443,-43.87825 29.14441,0 0.90197,-8.75376 -17.18947,0 c -1.33992,0 -3.54009,-0.4223 -3.54009,-2.21059 0,-1.80915 1.84564,-2.29402 3.01351,-2.29402 l 18.13314,0 0.83419,-8.69119 -19.24366,0 c -5.61512,0 -10.81315,2.13761 -11.23024,6.69436 -0.19812,2.21059 1.09487,4.88521 3.87897,6.68392 l -0.0167,0.17727 -3.83726,0 -0.84983,8.39401 z m -30.53647,-28.37801 67.53267,0 -12.51281,129.91424 c -1.57974,37.77305 -32.71057,67.91328 -70.87985,67.91328 l -3.19598,-0.0209 19.05597,-197.80666 z m 36.66253,112.74041 c -2.44,0 -4.42641,-1.42333 -4.22307,-3.59222 0.19311,-2.11675 2.43999,-3.55051 4.89042,-3.55051 2.44521,0 4.4264,1.43376 4.22829,3.55051 -0.19812,2.16889 -2.44,3.59222 -4.89564,3.59222 z m 2.94572,-26.97553 c -0.51615,0.18769 -0.86547,0.37538 -2.09068,0.37538 -2.50256,0 -4.85914,-1.52239 -4.65581,-3.73298 0.1097,-1.15744 0.46923,-2.08026 1.71009,-2.81539 l 5.0364,6.17299"
       id="path2702"
       style="fill:#990000;fill-opacity:1;fill-rule:nonzero;stroke:none" />
    <path
       inkscape:connector-curvature="0"
       d="M 636.72049,261.86081 619.57273,440.2257 c -38.16407,-6.6735 -63.87268,-26.45938 -60.42123,-63.43994 l -0.0209,-0.078 8.19589,-85.17574 -110.57674,0 c -18.22178,-0.13555 -32.95561,-14.95281 -32.95561,-33.21108 0,-18.25306 14.73383,-33.07031 32.95561,-33.22151 l 147.02551,0 c 18.31042,0.0521 33.13288,14.90067 33.13288,33.22151 0,1.19393 -0.068,2.37743 -0.18769,3.54008"
       id="path2704"
       style="fill:#990000;fill-opacity:1;fill-rule:nonzero;stroke:none" />
  </g>
</svg>
