<?xml version="1.0" encoding="UTF-8" standalone="no"?>
<!-- Created with Inkscape (http://www.inkscape.org/) -->

<svg
   xmlns:dc="http://purl.org/dc/elements/1.1/"
   xmlns:cc="http://creativecommons.org/ns#"
   xmlns:rdf="http://www.w3.org/1999/02/22-rdf-syntax-ns#"
   xmlns:svg="http://www.w3.org/2000/svg"
   xmlns="http://www.w3.org/2000/svg"
   version="1.1"
   width="371.79688"
   height="230.27344"
   id="svg3413"
   xml:space="preserve"><metadata
     id="metadata3419"><rdf:RDF><cc:Work
         rdf:about=""><dc:format>image/svg+xml</dc:format><dc:type
           rdf:resource="http://purl.org/dc/dcmitype/StillImage" /><dc:title></dc:title></cc:Work></rdf:RDF></metadata><defs
     id="defs3417" /><g
     transform="matrix(1.25,0,0,-1.25,-40.872813,283.6825)"
     id="g3421"><g
       transform="translate(181.417,203.196)"
       id="g3431"><g
         id="g3433"><g
           id="g3435" /><g
           id="g3437"><g
             id="g3439"><path
               d="m 56.34453,15.56229 -112.68906,0 c -2.20094,0 -3.98511,-1.78417 -3.98511,-3.98511 l 0,-23.15436 c 0,-2.20094 1.78417,-3.98511 3.98511,-3.98511 l 112.68906,0 c 2.20094,0 3.98511,1.78417 3.98511,3.98511 l 0,23.15436 c 0,2.20094 -1.78417,3.98511 -3.98511,3.98511 z"
               id="path3441"
               style="fill:none;stroke:#000000;stroke-width:0.3985;stroke-linecap:butt;stroke-linejoin:miter;stroke-miterlimit:10;stroke-opacity:1;stroke-dasharray:none" /><g
               transform="translate(-56.693,4.351)"
               id="g3443"><g
                 transform="translate(6.564,0)"
                 id="g3445"><g
                   transform="translate(-131.288,-207.547)"
                   id="g3447"><text
                     transform="matrix(1,0,0,-0.98039216,131.288,207.547)"
                     id="text3449"><tspan
                       x="0 7.1859989 12.132075 20.971588 26.535229 30.553291 39.137989 44.70163 47.359936 55.016621 58.807686 63.753761 69.814796 75.378433 79.643524 82.301826 86.319893 91.571968 95.374161"
                       y="0"
                       id="tspan3451"
                       style="font-size:11.12728214px;font-variant:normal;font-weight:normal;writing-mode:lr-tb;fill:#000000;fill-opacity:1;fill-rule:nonzero;stroke:none;font-family:LMSans10;-inkscape-font-specification:LMSans10-Regular">Remotegitrepository</tspan></text>
<text
                     transform="matrix(1,0,0,-1,133.616,193.998)"
                     id="text3453"><tspan
                       x="0 5.7272773 11.454555 17.181833 22.909109 28.636387 34.363667 40.090942 45.818218 51.545498"
                       y="0"
                       id="tspan3455"
                       style="font-size:10.90909958px;font-variant:normal;font-weight:normal;writing-mode:lr-tb;fill:#000000;fill-opacity:1;fill-rule:nonzero;stroke:none;font-family:LMMono10;-inkscape-font-specification:LMMono10-Regular">github.com</tspan></text>
<text
                     transform="matrix(1,0,0,-0.98039216,194.524,193.998)"
                     id="text3457"><tspan
                       x="0 4.3274002 8.5924873 13.538564 17.340755 22.471546 27.417624 31.219814"
                       y="0"
                       id="tspan3459"
                       style="font-size:11.12728214px;font-variant:normal;font-weight:normal;writing-mode:lr-tb;fill:#000000;fill-opacity:1;fill-rule:nonzero;stroke:none;font-family:LMSans10;-inkscape-font-specification:LMSans10-Regular">(server)</tspan></text>
<g
                     transform="translate(124.724,207.547)"
                     id="g3461" /></g></g><g
                 transform="translate(56.693,-4.351)"
                 id="g3463" /></g></g><g
             id="g3465"><path
               d="m -23.83246,-64.6147 -112.68907,0 c -2.20094,0 -3.98511,-1.78416 -3.98511,-3.98511 l 0,-23.15437 c 0,-2.20094 1.78417,-3.98511 3.98511,-3.98511 l 112.68907,0 c 2.20094,0 3.98511,1.78417 3.98511,3.98511 l 0,23.15437 c 0,2.20095 -1.78417,3.98511 -3.98511,3.98511 z"
               id="path3467"
               style="fill:none;stroke:#000000;stroke-width:0.3985;stroke-linecap:butt;stroke-linejoin:miter;stroke-miterlimit:10;stroke-opacity:1;stroke-dasharray:none" /><g
               transform="translate(-136.869,-75.825)"
               id="g3469"><g
                 transform="translate(21.585,0)"
                 id="g3471"><g
                   transform="translate(-66.133,-127.371)"
                   id="g3473"><text
                     transform="matrix(1,0,0,-0.98039216,66.133,127.371)"
                     id="text3475"><tspan
                       x="0 7.4185591 10.076866 12.735174 17.681252 22.627329 25.718487 33.622196 39.185837 41.844143 49.4897 53.291893 58.237968 64.298996"
                       y="0"
                       id="tspan3477"
                       style="font-size:11.12728214px;font-variant:normal;font-weight:normal;writing-mode:lr-tb;fill:#000000;fill-opacity:1;fill-rule:nonzero;stroke:none;font-family:LMSans10;-inkscape-font-specification:LMSans10-Regular">Alice’sgitrepo</tspan></text>
<text
                     transform="matrix(1,0,0,-0.98039216,53.723,113.822)"
                     id="text3479"><tspan
                       x="0 4.3274002 10.355048 15.701708 21.451174 25.469236 31.032877 40.420963 45.68417 53.113853 61.149979 66.096054 70.361145 75.80127 79.819328 85.382973 91.132439"
                       y="0"
                       id="tspan3481"
                       style="font-size:11.12728214px;font-variant:normal;font-weight:normal;writing-mode:lr-tb;fill:#000000;fill-opacity:1;fill-rule:nonzero;stroke:none;font-family:LMSans10;-inkscape-font-specification:LMSans10-Regular">(LaptoporDesktop)</tspan></text>
<g
                     transform="translate(44.548,127.371)"
                     id="g3483" /></g></g><g
                 transform="translate(136.869,75.825)"
                 id="g3485" /></g></g><g
             id="g3487"><path
               d="m 136.52153,-64.6147 -112.68907,0 c -2.20094,0 -3.98511,-1.78416 -3.98511,-3.98511 l 0,-23.15437 c 0,-2.20094 1.78417,-3.98511 3.98511,-3.98511 l 112.68907,0 c 2.20094,0 3.98511,1.78417 3.98511,3.98511 l 0,23.15437 c 0,2.20095 -1.78417,3.98511 -3.98511,3.98511 z"
               id="path3489"
               style="fill:none;stroke:#000000;stroke-width:0.3985;stroke-linecap:butt;stroke-linejoin:miter;stroke-miterlimit:10;stroke-opacity:1;stroke-dasharray:none" /><g
               transform="translate(23.483,-75.825)"
               id="g3491"><g
                 transform="translate(23.712,0)"
                 id="g3493"><g
                   transform="translate(-228.612,-127.371)"
                   id="g3495"><text
                     transform="matrix(1,0,0,-0.98039216,228.612,127.371)"
                     id="text3497"><tspan
                       x="0 7.4185591 12.9822 18.731667 21.822826 29.726534 35.290176 37.948483 45.594036 49.396229 54.342308 60.403339"
                       y="0"
                       id="tspan3499"
                       style="font-size:11.12728214px;font-variant:normal;font-weight:normal;writing-mode:lr-tb;fill:#000000;fill-opacity:1;fill-rule:nonzero;stroke:none;font-family:LMSans10;-inkscape-font-specification:LMSans10-Regular">Bob’sgitrepo</tspan></text>
<text
                     transform="matrix(1,0,0,-0.98039216,214.075,113.822)"
                     id="text3501"><tspan
                       x="0 4.3274002 10.355048 15.701708 21.451174 25.469236 31.032877 40.420963 45.673042 53.113853 61.149979 66.096054 70.361145 75.80127 79.819328 85.382973 91.132439"
                       y="0"
                       id="tspan3503"
                       style="font-size:11.12728214px;font-variant:normal;font-weight:normal;writing-mode:lr-tb;fill:#000000;fill-opacity:1;fill-rule:nonzero;stroke:none;font-family:LMSans10;-inkscape-font-specification:LMSans10-Regular">(LaptoporDesktop)</tspan></text>
<g
                     transform="translate(204.9,127.371)"
                     id="g3505" /></g></g><g
                 transform="translate(-23.483,75.825)"
                 id="g3507" /></g></g><g
             id="g3509"><path
               d="m -23.83246,-121.45984 -112.68907,0 c -2.20094,0 -3.98511,-1.78416 -3.98511,-3.98511 l 0,-22.85136 c 0,-2.20094 1.78417,-3.98511 3.98511,-3.98511 l 112.68907,0 c 2.20094,0 3.98511,1.78417 3.98511,3.98511 l 0,22.85136 c 0,2.20095 -1.78417,3.98511 -3.98511,3.98511 z"
               id="path3511"
               style="fill:none;stroke:#000000;stroke-width:0.3985;stroke-linecap:butt;stroke-linejoin:miter;stroke-miterlimit:10;stroke-opacity:1;stroke-dasharray:none" /><g
               transform="translate(-136.869,-132.67)"
               id="g3513"><g
                 transform="translate(9.582,0)"
                 id="g3515"><g
                   transform="translate(-54.13,-70.526)"
                   id="g3517"><text
                     transform="matrix(1,0,0,-0.98039216,54.13,70.526)"
                     id="text3519"><tspan
                       x="0 7.4185591 10.076866 12.735174 17.681252 22.627329 25.718487 33.622196 40.913902 46.177109 49.979301 55.41943 58.077736 63.827202 73.029465 77.97554 83.539185 88.988213"
                       y="0"
                       id="tspan3521"
                       style="font-size:11.12728214px;font-variant:normal;font-weight:normal;writing-mode:lr-tb;fill:#000000;fill-opacity:1;fill-rule:nonzero;stroke:none;font-family:LMSans10;-inkscape-font-specification:LMSans10-Regular">Alice’sworkingcopy</tspan></text>
<text
                     transform="matrix(1,0,0,-1,75.612,56.977)"
                     id="text3523"><tspan
                       x="0 5.7272773 11.454555 17.181833 22.909109 28.636387 34.363667 40.090942 45.818218"
                       y="0"
                       id="tspan3525"
                       style="font-size:10.90909958px;font-variant:normal;font-weight:normal;writing-mode:lr-tb;fill:#000000;fill-opacity:1;fill-rule:nonzero;stroke:none;font-family:LMMono10;-inkscape-font-specification:LMMono10-Regular">paper.tex</tspan></text>
<g
                     transform="translate(44.548,70.526)"
                     id="g3527" /></g></g><g
                 transform="translate(136.869,132.67)"
                 id="g3529" /></g></g><g
             id="g3531"><path
               d="m 136.52153,-121.45984 -112.68907,0 c -2.20094,0 -3.98511,-1.78416 -3.98511,-3.98511 l 0,-22.85136 c 0,-2.20094 1.78417,-3.98511 3.98511,-3.98511 l 112.68907,0 c 2.20094,0 3.98511,1.78417 3.98511,3.98511 l 0,22.85136 c 0,2.20095 -1.78417,3.98511 -3.98511,3.98511 z"
               id="path3533"
               style="fill:none;stroke:#000000;stroke-width:0.3985;stroke-linecap:butt;stroke-linejoin:miter;stroke-miterlimit:10;stroke-opacity:1;stroke-dasharray:none" /><g
               transform="translate(23.483,-132.67)"
               id="g3535"><g
                 transform="translate(11.709,0)"
                 id="g3537"><g
                   transform="translate(-216.609,-70.526)"
                   id="g3539"><text
                     transform="matrix(1,0,0,-0.98039216,216.609,70.526)"
                     id="text3541"><tspan
                       x="0 7.4185591 12.9822 18.731667 21.822826 29.726534 37.029369 42.281445 46.083637 51.523766 54.182076 59.931541 69.133804 74.07988 79.643524 85.092552"
                       y="0"
                       id="tspan3543"
                       style="font-size:11.12728214px;font-variant:normal;font-weight:normal;writing-mode:lr-tb;fill:#000000;fill-opacity:1;fill-rule:nonzero;stroke:none;font-family:LMSans10;-inkscape-font-specification:LMSans10-Regular">Bob’sworkingcopy</tspan></text>
<text
                     transform="matrix(1,0,0,-1,235.964,56.977)"
                     id="text3545"><tspan
                       x="0 5.7272773 11.454555 17.181833 22.909109 28.636387 34.363667 40.090942 45.818218"
                       y="0"
                       id="tspan3547"
                       style="font-size:10.90909958px;font-variant:normal;font-weight:normal;writing-mode:lr-tb;fill:#000000;fill-opacity:1;fill-rule:nonzero;stroke:none;font-family:LMMono10;-inkscape-font-specification:LMMono10-Regular">paper.tex</tspan></text>
<g
                     transform="translate(204.9,70.526)"
                     id="g3549" /></g></g><g
                 transform="translate(-23.483,132.67)"
                 id="g3551" /></g></g><g
             id="g3553"><path
               d="M -17.00781,-15.76154 -85.26678,-64.00587"
               id="path3555"
               style="fill:none;stroke:#0000ff;stroke-width:0.79701;stroke-linecap:butt;stroke-linejoin:miter;stroke-miterlimit:10;stroke-opacity:1;stroke-dasharray:none" /><g
               transform="matrix(-0.81923,-0.57903,0.57903,-0.81923,-85.26678,-64.00587)"
               id="g3557"><g
                 id="g3559"><path
                   d="M -1.55415,2.0722 C -1.42464,1.29512 0,0.1295 0.38852,0 0,-0.1295 -1.42464,-1.29512 -1.55415,-2.0722"
                   id="path3561"
                   style="fill:none;stroke:#0000ff;stroke-width:0.6376;stroke-linecap:round;stroke-linejoin:round;stroke-miterlimit:10;stroke-opacity:1;stroke-dasharray:none" /></g></g><g
               id="g3563"><g
                 transform="translate(-71.946,-42.815)"
                 id="g3565"><g
                   id="g3567"><g
                     transform="translate(-109.471,-160.381)"
                     id="g3569"><text
                       transform="matrix(1,0,0,-1,109.471,160.381)"
                       id="text3571"><tspan
                         x="0 5.6367321 11.273464 13.879648"
                         y="0"
                         id="tspan3573"
                         style="font-size:10.90909958px;font-variant:normal;font-weight:normal;writing-mode:lr-tb;fill:#0000ff;fill-opacity:1;fill-rule:nonzero;stroke:none;font-family:LMSans10;-inkscape-font-specification:LMSans10-Regular">pull</tspan></text>
<g
                       transform="translate(109.471,160.381)"
                       id="g3575" /></g></g><g
                   transform="translate(71.946,42.815)"
                   id="g3577" /></g></g></g><g
             id="g3579"><path
               d="m -74.50772,-64.41544 68.25897,48.24433"
               id="path3581"
               style="fill:none;stroke:#ff0000;stroke-width:0.79701;stroke-linecap:butt;stroke-linejoin:miter;stroke-miterlimit:10;stroke-opacity:1;stroke-dasharray:none" /><g
               transform="matrix(0.81923,0.57903,-0.57903,0.81923,-6.24875,-16.17111)"
               id="g3583"><g
                 id="g3585"><path
                   d="M -1.55415,2.0722 C -1.42464,1.29512 0,0.1295 0.38852,0 0,-0.1295 -1.42464,-1.29512 -1.55415,-2.0722"
                   id="path3587"
                   style="fill:none;stroke:#ff0000;stroke-width:0.6376;stroke-linecap:round;stroke-linejoin:round;stroke-miterlimit:10;stroke-opacity:1;stroke-dasharray:none" /></g></g><g
               id="g3589"><g
                 transform="translate(-36.053,-42.815)"
                 id="g3591"><g
                   id="g3593"><g
                     transform="translate(-145.364,-160.381)"
                     id="g3595"><text
                       transform="matrix(1,0,0,-1,145.364,160.381)"
                       id="text3597"><tspan
                         x="0 5.6367321 11.273464 15.454922"
                         y="0"
                         id="tspan3599"
                         style="font-size:10.90909958px;font-variant:normal;font-weight:normal;writing-mode:lr-tb;fill:#ff0000;fill-opacity:1;fill-rule:nonzero;stroke:none;font-family:LMSans10;-inkscape-font-specification:LMSans10-Regular">push</tspan></text>
<g
                       transform="translate(145.364,160.381)"
                       id="g3601" /></g></g><g
                   transform="translate(36.053,42.815)"
                   id="g3603" /></g></g></g><g
             id="g3605"><path
               d="M 17.00781,-15.76154 85.26678,-64.00587"
               id="path3607"
               style="fill:none;stroke:#0000ff;stroke-width:0.79701;stroke-linecap:butt;stroke-linejoin:miter;stroke-miterlimit:10;stroke-opacity:1;stroke-dasharray:none" /><g
               transform="matrix(0.81923,-0.57903,0.57903,0.81923,85.26678,-64.00587)"
               id="g3609"><g
                 id="g3611"><path
                   d="M -1.55415,2.0722 C -1.42464,1.29512 0,0.1295 0.38852,0 0,-0.1295 -1.42464,-1.29512 -1.55415,-2.0722"
                   id="path3613"
                   style="fill:none;stroke:#0000ff;stroke-width:0.6376;stroke-linecap:round;stroke-linejoin:round;stroke-miterlimit:10;stroke-opacity:1;stroke-dasharray:none" /></g></g><g
               id="g3615"><g
                 transform="translate(55.461,-42.815)"
                 id="g3617"><g
                   id="g3619"><g
                     transform="translate(-236.878,-160.381)"
                     id="g3621"><text
                       transform="matrix(1,0,0,-1,236.878,160.381)"
                       id="text3623"><tspan
                         x="0 5.6367321 11.273464 13.879648"
                         y="0"
                         id="tspan3625"
                         style="font-size:10.90909958px;font-variant:normal;font-weight:normal;writing-mode:lr-tb;fill:#0000ff;fill-opacity:1;fill-rule:nonzero;stroke:none;font-family:LMSans10;-inkscape-font-specification:LMSans10-Regular">pull</tspan></text>
<g
                       transform="translate(236.878,160.381)"
                       id="g3627" /></g></g><g
                   transform="translate(-55.461,42.815)"
                   id="g3629" /></g></g></g><g
             id="g3631"><path
               d="M 74.50772,-64.41544 6.24875,-16.17111"
               id="path3633"
               style="fill:none;stroke:#ff0000;stroke-width:0.79701;stroke-linecap:butt;stroke-linejoin:miter;stroke-miterlimit:10;stroke-opacity:1;stroke-dasharray:none" /><g
               transform="matrix(-0.81923,0.57903,-0.57903,-0.81923,6.24875,-16.17111)"
               id="g3635"><g
                 id="g3637"><path
                   d="M -1.55415,2.0722 C -1.42464,1.29512 0,0.1295 0.38852,0 0,-0.1295 -1.42464,-1.29512 -1.55415,-2.0722"
                   id="path3639"
                   style="fill:none;stroke:#ff0000;stroke-width:0.6376;stroke-linecap:round;stroke-linejoin:round;stroke-miterlimit:10;stroke-opacity:1;stroke-dasharray:none" /></g></g><g
               id="g3641"><g
                 transform="translate(14.963,-42.815)"
                 id="g3643"><g
                   id="g3645"><g
                     transform="translate(-196.38,-160.381)"
                     id="g3647"><text
                       transform="matrix(1,0,0,-1,196.38,160.381)"
                       id="text3649"><tspan
                         x="0 5.6367321 11.273464 15.454922"
                         y="0"
                         id="tspan3651"
                         style="font-size:10.90909958px;font-variant:normal;font-weight:normal;writing-mode:lr-tb;fill:#ff0000;fill-opacity:1;fill-rule:nonzero;stroke:none;font-family:LMSans10;-inkscape-font-specification:LMSans10-Regular">push</tspan></text>
<g
                       transform="translate(196.38,160.381)"
                       id="g3653" /></g></g><g
                   transform="translate(-14.963,42.815)"
                   id="g3655" /></g></g></g><g
             id="g3657"><path
               d="m -85.84627,-95.93854 0,-24.61468"
               id="path3659"
               style="fill:none;stroke:#ff8000;stroke-width:0.79701;stroke-linecap:butt;stroke-linejoin:miter;stroke-miterlimit:10;stroke-opacity:1;stroke-dasharray:none" /><g
               transform="matrix(0,-1,1,0,-85.84627,-120.55322)"
               id="g3661"><g
                 id="g3663"><path
                   d="M -1.55415,2.0722 C -1.42464,1.29512 0,0.1295 0.38852,0 0,-0.1295 -1.42464,-1.29512 -1.55415,-2.0722"
                   id="path3665"
                   style="fill:none;stroke:#ff8000;stroke-width:0.6376;stroke-linecap:round;stroke-linejoin:round;stroke-miterlimit:10;stroke-opacity:1;stroke-dasharray:none" /></g></g><g
               id="g3667"><g
                 transform="translate(-130.122,-112.386)"
                 id="g3669"><g
                   id="g3671"><g
                     transform="translate(-51.295,-90.81)"
                     id="g3673"><text
                       transform="matrix(1,0,0,-1,51.295,90.81)"
                       id="text3675"><tspan
                         x="0 4.8490949 10.485826 15.334922 20.184017 25.212021 30.666571 36.303303"
                         y="0"
                         id="tspan3677"
                         style="font-size:10.90909958px;font-variant:normal;font-weight:normal;writing-mode:lr-tb;fill:#ff8000;fill-opacity:1;fill-rule:nonzero;stroke:none;font-family:LMSans10;-inkscape-font-specification:LMSans10-Regular">checkout</tspan></text>
<g
                       transform="translate(51.295,90.81)"
                       id="g3679" /></g></g><g
                   transform="translate(130.122,112.386)"
                   id="g3681" /></g></g></g><g
             id="g3683"><path
               d="m -74.50772,-121.26057 0,24.61467"
               id="path3685"
               style="fill:none;stroke:#00ff00;stroke-width:0.79701;stroke-linecap:butt;stroke-linejoin:miter;stroke-miterlimit:10;stroke-opacity:1;stroke-dasharray:none" /><g
               transform="matrix(0,1,-1,0,-74.50772,-96.6459)"
               id="g3687"><g
                 id="g3689"><path
                   d="M -1.55415,2.0722 C -1.42464,1.29512 0,0.1295 0.38852,0 0,-0.1295 -1.42464,-1.29512 -1.55415,-2.0722"
                   id="path3691"
                   style="fill:none;stroke:#00ff00;stroke-width:0.6376;stroke-linecap:round;stroke-linejoin:round;stroke-miterlimit:10;stroke-opacity:1;stroke-dasharray:none" /></g></g><g
               id="g3693"><g
                 transform="translate(-70.472,-112.174)"
                 id="g3695"><g
                   id="g3697"><g
                     transform="translate(-110.945,-91.022)"
                     id="g3699"><text
                       transform="matrix(1,0,0,-1,110.945,91.022)"
                       id="text3701"><tspan
                         x="0 4.8490949 10.303645 18.969833 27.636023 30.242207"
                         y="0"
                         id="tspan3703"
                         style="font-size:10.90909958px;font-variant:normal;font-weight:normal;writing-mode:lr-tb;fill:#00ff00;fill-opacity:1;fill-rule:nonzero;stroke:none;font-family:LMSans10;-inkscape-font-specification:LMSans10-Regular">commit</tspan></text>
<g
                       transform="translate(110.945,91.022)"
                       id="g3705" /></g></g><g
                   transform="translate(70.472,112.174)"
                   id="g3707" /></g></g></g><g
             id="g3709"><path
               d="m 85.84627,-95.93854 0,-24.61468"
               id="path3711"
               style="fill:none;stroke:#ff8000;stroke-width:0.79701;stroke-linecap:butt;stroke-linejoin:miter;stroke-miterlimit:10;stroke-opacity:1;stroke-dasharray:none" /><g
               transform="matrix(0,-1,1,0,85.84627,-120.55322)"
               id="g3713"><g
                 id="g3715"><path
                   d="M -1.55415,2.0722 C -1.42464,1.29512 0,0.1295 0.38852,0 0,-0.1295 -1.42464,-1.29512 -1.55415,-2.0722"
                   id="path3717"
                   style="fill:none;stroke:#ff8000;stroke-width:0.6376;stroke-linecap:round;stroke-linejoin:round;stroke-miterlimit:10;stroke-opacity:1;stroke-dasharray:none" /></g></g><g
               id="g3719"><g
                 transform="translate(89.88,-112.386)"
                 id="g3721"><g
                   id="g3723"><g
                     transform="translate(-271.297,-90.81)"
                     id="g3725"><text
                       transform="matrix(1,0,0,-1,271.297,90.81)"
                       id="text3727"><tspan
                         x="0 4.8490949 10.485826 15.334922 20.184017 25.212021 30.666571 36.303303"
                         y="0"
                         id="tspan3729"
                         style="font-size:10.90909958px;font-variant:normal;font-weight:normal;writing-mode:lr-tb;fill:#ff8000;fill-opacity:1;fill-rule:nonzero;stroke:none;font-family:LMSans10;-inkscape-font-specification:LMSans10-Regular">checkout</tspan></text>
<g
                       transform="translate(271.297,90.81)"
                       id="g3731" /></g></g><g
                   transform="translate(-89.88,112.386)"
                   id="g3733" /></g></g></g><g
             id="g3735"><path
               d="m 74.50772,-121.26057 0,24.61467"
               id="path3737"
               style="fill:none;stroke:#00ff00;stroke-width:0.79701;stroke-linecap:butt;stroke-linejoin:miter;stroke-miterlimit:10;stroke-opacity:1;stroke-dasharray:none" /><g
               transform="matrix(0,1,-1,0,74.50772,-96.6459)"
               id="g3739"><g
                 id="g3741"><path
                   d="M -1.55415,2.0722 C -1.42464,1.29512 0,0.1295 0.38852,0 0,-0.1295 -1.42464,-1.29512 -1.55415,-2.0722"
                   id="path3743"
                   style="fill:none;stroke:#00ff00;stroke-width:0.6376;stroke-linecap:round;stroke-linejoin:round;stroke-miterlimit:10;stroke-opacity:1;stroke-dasharray:none" /></g></g><g
               id="g3745"><g
                 transform="translate(36.291,-112.174)"
                 id="g3747"><g
                   id="g3749"><g
                     transform="translate(-217.708,-91.022)"
                     id="g3751"><text
                       transform="matrix(1,0,0,-1,217.708,91.022)"
                       id="text3753"><tspan
                         x="0 4.8490949 10.303645 18.969833 27.636023 30.242207"
                         y="0"
                         id="tspan3755"
                         style="font-size:10.90909958px;font-variant:normal;font-weight:normal;writing-mode:lr-tb;fill:#00ff00;fill-opacity:1;fill-rule:nonzero;stroke:none;font-family:LMSans10;-inkscape-font-specification:LMSans10-Regular">commit</tspan></text>
<g
                       transform="translate(217.708,91.022)"
                       id="g3757" /></g></g><g
                   transform="translate(-36.291,112.174)"
                   id="g3759" /></g></g></g></g></g></g></g></svg>